<?xml version="1.0" encoding="utf-8"?>
<!-- Generator: Adobe Illustrator 28.1.0, SVG Export Plug-In . SVG Version: 6.00 Build 0)  -->
<svg version="1.1" id="Calque_1" xmlns="http://www.w3.org/2000/svg" xmlns:xlink="http://www.w3.org/1999/xlink" x="0px" y="0px"
	 viewBox="0 0 226.6 233.8" style="enable-background:new 0 0 226.6 233.8;" xml:space="preserve">
<style type="text/css">
	.st0{fill:#113B40;}
	.st1{fill:#FFAA1D;}
	.st2{fill:#2EADA8;}
</style>
<circle class="st0" cx="113.3" cy="116.9" r="113.3"/>
<g>
	<path class="st0" d="M113.8,4.8C53.4,4.4,1.3,53,1.2,117.1c0,59.6,47.1,109.5,107.9,111.8c63.5,2.3,115.8-48.3,116.2-110.9
		C226.3,58,177.9,5.2,113.8,4.8z M220.8,105.1c-2,0.2-3.9,0.4-5.8,0.6c-0.5-3.2-1-6.3-1.5-9.5c1.9-0.4,3.7-0.8,5.7-1.2
		C219.7,98.4,220.3,101.7,220.8,105.1z M19.7,116.9c0-51.6,42-93.6,93.6-93.6c51.6,0,93.6,42,93.6,93.6s-42,93.6-93.6,93.6
		C61.7,210.5,19.7,168.5,19.7,116.9z M219,93.9c-2,0.4-3.8,0.8-5.7,1.2c-0.9-3.1-1.7-6.1-2.5-9.3c1.8-0.6,3.6-1.2,5.6-1.8
		C217.3,87.4,218.1,90.6,219,93.9z M216,83c-2,0.6-3.8,1.2-5.6,1.8c-1.2-3.1-2.2-6-3.4-8.9c1.7-0.8,3.4-1.5,5.3-2.4
		C213.6,76.6,214.7,79.8,216,83z M211.9,72.5c-1.9,0.8-3.6,1.6-5.4,2.4c-1.2-2.3-2.3-4.5-3.4-6.8c1.7-1,3.3-1.9,5.1-2.9
		C209.4,67.6,210.6,70,211.9,72.5z M205.7,60.7c-1.8,1-3.4,1.9-5.1,2.9c-1.4-2.1-2.8-4.2-4.2-6.3c1.6-1.1,3.1-2.2,4.8-3.4
		C202.7,56.2,204.2,58.4,205.7,60.7z M200.5,53c-1.6,1.1-3.1,2.2-4.7,3.4c-2.1-2.5-4-4.9-6-7.4c1.3-1.2,2.7-2.5,4.3-3.9
		C196.3,47.8,198.4,50.4,200.5,53z M193.2,44.4c-1.4,1.2-2.7,2.4-4,3.6c-2.3-2.3-4.5-4.5-6.8-6.8c1.1-1.2,2.3-2.6,3.7-4.1
		C188.5,39.5,190.8,41.9,193.2,44.4z M185.3,36.3c-1.4,1.5-2.6,2.9-3.9,4.3c-2.4-2-4.9-3.9-7.4-6c1.1-1.5,2.1-3,3.4-4.7
		C180,32,182.6,34.1,185.3,36.3z M169.7,24.7c2.3,1.5,4.5,3,6.8,4.5c-1.2,1.6-2.2,3.1-3.4,4.7c-2.2-1.4-4.2-2.8-6.3-4.2
		C167.8,28.1,168.7,26.5,169.7,24.7z M165.2,22.2c-1,1.7-1.9,3.3-2.9,5c-2.3-1.2-4.5-2.2-6.8-3.4c0.8-1.8,1.6-3.5,2.4-5.3
		C160.3,19.8,162.7,20.9,165.2,22.2z M156.9,17.9c-0.8,1.8-1.6,3.6-2.4,5.3c-3-1.1-5.9-2.2-8.9-3.4c0.6-1.8,1.2-3.6,1.8-5.5
		C150.6,15.5,153.6,16.6,156.9,17.9z M146.4,13.9c-0.6,2-1.2,3.7-1.8,5.6c-3.2-0.8-6.2-1.7-9.3-2.5c0.4-1.8,0.9-3.7,1.3-5.7
		C139.9,12.2,143.1,13,146.4,13.9z M125.3,9.5c3.4,0.6,6.7,1.1,10.1,1.6c-0.4,2-0.8,3.8-1.2,5.7c-3.2-0.5-6.3-1-9.5-1.5
		C124.9,13.4,125.1,11.6,125.3,9.5z M116.2,8.9c2.7,0.1,5.3,0.3,8.1,0.5c-0.2,2-0.4,3.8-0.6,5.8c-2.6-0.1-5-0.3-7.6-0.4
		C116.1,12.8,116.1,10.9,116.2,8.9z M110.9,8.8c0,2.1,0,3.9,0,5.9c-2.5,0.1-4.9,0.3-7.5,0.4c-0.2-1.9-0.4-3.7-0.6-5.8
		C105.5,9.1,108.1,9,110.9,8.8z M101.7,9.4c0.2,2.1,0.4,3.9,0.6,5.8c-3.2,0.5-6.3,1-9.5,1.5C92.4,14.9,92,13,91.6,11
		C95,10.4,98.2,9.9,101.7,9.4z M90.5,11.2c0.4,2,0.8,3.8,1.2,5.7c-3.1,0.8-6.1,1.6-9.3,2.4c-0.6-1.7-1.1-3.5-1.8-5.5
		C83.9,13,87.1,12.1,90.5,11.2z M79.6,14.2c0.6,1.9,1.2,3.6,1.8,5.5c-2.9,1.1-5.8,2.2-8.9,3.4c-0.7-1.6-1.5-3.4-2.4-5.3
		C73.3,16.6,76.4,15.4,79.6,14.2z M69.1,18.3c0.8,1.8,1.5,3.5,2.3,5.3c-2.3,1.2-4.4,2.2-6.8,3.5c-0.9-1.7-1.8-3.3-2.9-5.1
		C64.2,20.7,66.6,19.6,69.1,18.3z M57.3,24.5c1,1.7,1.9,3.3,2.9,5c-2.1,1.4-4.2,2.8-6.3,4.2c-1.1-1.5-2.2-3-3.4-4.7
		C52.8,27.5,55,26,57.3,24.5z M49.6,29.6c1.2,1.6,2.3,3.2,3.4,4.7c-2.5,2.1-5,4-7.4,6.1c-1.3-1.5-2.5-2.9-3.9-4.4
		C44.3,33.9,46.9,31.8,49.6,29.6z M40.8,36.7c1.4,1.6,2.6,3,3.8,4.3c-2.5,2.4-4.9,4.8-7.4,7.3c-1.2-1.1-2.6-2.3-4.3-3.8
		C35.6,41.9,38.1,39.3,40.8,36.7z M32.2,45.4c1.6,1.4,3,2.6,4.4,3.9c-2,2.5-4,4.9-6.1,7.4c-1.5-1.1-3-2.2-4.7-3.4
		C28,50.7,30,48.1,32.2,45.4z M25.3,54.3c1.6,1.2,3.1,2.2,4.7,3.4c-1.4,2.1-2.8,4.1-4.2,6.3c-1.6-1-3.3-1.9-5-2.8
		C22.3,58.9,23.8,56.6,25.3,54.3z M18.1,65.6c1.8,1,3.4,1.9,5.1,2.9c-1.1,2.3-2.2,4.5-3.3,6.8c-1.7-0.8-3.4-1.6-5.3-2.4
		C15.8,70.4,17,68,18.1,65.6z M14.1,73.9c1.9,0.8,3.6,1.6,5.4,2.2c-1.2,3-2.3,5.9-3.4,9c-1.8-0.5-3.6-1.1-5.6-1.7
		C11.7,80.2,12.9,77.1,14.1,73.9z M10.1,84.5c2,0.6,3.8,1.2,5.6,1.8c-0.8,3.1-1.6,6.1-2.4,9.3c-1.9-0.4-3.7-0.8-5.7-1.2
		C8.4,91.1,9.2,87.9,10.1,84.5z M7.4,95.5c2.1,0.4,3.8,0.8,5.7,1.2c-0.5,3.1-1,6.2-1.5,9.5c-1.8-0.2-3.7-0.4-5.8-0.6
		C6.4,102.1,6.9,98.9,7.4,95.5z M5.8,106.6c2,0.2,3.8,0.4,5.8,0.6c-0.2,2.6-0.3,5-0.5,7.5c-1.9,0-3.7,0-5.8,0
		C5.5,112,5.6,109.4,5.8,106.6z M11.2,119.9c0.2,2.5,0.3,4.9,0.5,7.5c-1.9,0.3-3.8,0.5-5.8,0.7c-0.2-2.8-0.4-5.4-0.6-8.2
		C7.3,119.9,9.1,119.9,11.2,119.9z M5.9,129.2c2.1-0.2,3.9-0.4,5.8-0.7c0.5,3.2,1,6.2,1.5,9.5c-1.8,0.4-3.6,0.8-5.7,1.3
		C7,135.9,6.5,132.6,5.9,129.2z M7.8,140.3c2-0.4,3.8-0.8,5.7-1.2c0.8,3,1.6,6,2.5,9.2c-1.7,0.6-3.5,1.2-5.5,1.9
		C9.6,146.9,8.7,143.6,7.8,140.3z M10.7,151.3c1.9-0.7,3.7-1.3,5.6-1.9c1.2,3.1,2.4,6,3.4,9c-1.7,0.8-3.4,1.6-5.3,2.4
		C13.2,157.7,12,154.6,10.7,151.3z M15,161.8c1.8-0.8,3.5-1.6,5.3-2.4c1.1,2.3,2.2,4.5,3.4,6.8c-1.7,0.9-3.3,1.8-5.1,2.9
		C17.4,166.6,16.2,164.2,15,161.8z M21.2,173.5c1.8-1,3.4-2,5.1-3c1.4,2.1,2.8,4.2,4.2,6.3c-1.6,1.2-3.1,2.3-4.7,3.5
		C24.2,178,22.8,175.8,21.2,173.5z M26.4,181.2c1.7-1.2,3.2-2.3,4.6-3.4c2,2.4,4,4.9,6.1,7.4c-1.4,1.2-2.8,2.5-4.3,3.9
		C30.7,186.4,28.6,183.9,26.4,181.2z M33.7,189.8c1.4-1.3,2.8-2.5,4.2-3.8c2.2,2.3,4.3,4.6,6.6,7c-1,1.1-2.3,2.5-3.7,4.1
		C38.4,194.7,36.1,192.3,33.7,189.8z M41.7,197.8c1.4-1.5,2.6-2.9,3.8-4.3c2.5,2,5,4,7.5,6c-1.1,1.5-2.2,3-3.4,4.7
		C47,202.1,44.4,200,41.7,197.8z M57.3,209.4c-2.3-1.6-4.5-3-6.8-4.6c1.2-1.6,2.3-3.1,3.4-4.7c2.1,1.4,4.2,2.8,6.3,4.2
		C59.2,206,58.3,207.6,57.3,209.4z M61.8,211.9c1-1.8,1.9-3.4,2.8-5.1c2.3,1.2,4.5,2.2,6.8,3.4c-0.7,1.8-1.5,3.5-2.3,5.4
		C66.7,214.3,64.3,213.2,61.8,211.9z M70.1,216c0.9-1.8,1.6-3.5,2.4-5.3c3,1.1,5.9,2.2,9,3.4c-0.7,1.9-1.2,3.6-1.9,5.6
		C76.4,218.4,73.3,217.2,70.1,216z M80.7,220c0.6-1.9,1.2-3.7,1.8-5.5c3.1,0.8,6.1,1.6,9.3,2.4c-0.4,1.8-0.8,3.6-1.2,5.7
		C87.2,221.7,84,220.9,80.7,220z M101.8,224.3c-3.4-0.5-6.7-1-10.1-1.5c0.4-2,0.8-3.8,1.2-5.7c3.2,0.5,6.2,1,9.5,1.5
		C102.2,220.5,101.9,222.3,101.8,224.3z M110.9,225c-2.6-0.2-5.2-0.3-8-0.5c0.2-2.1,0.3-3.9,0.5-5.8c2.6,0.1,5,0.3,7.5,0.4
		C110.9,221,110.9,222.9,110.9,225z M116.2,225c0-2,0-3.9,0-5.8c2.5-0.2,4.9-0.3,7.5-0.5c0.2,1.9,0.4,3.8,0.6,5.8
		C121.6,224.7,118.9,224.8,116.2,225z M125.4,224.3c-0.2-2.1-0.4-3.9-0.6-5.8c3.2-0.5,6.2-1,9.5-1.5c0.3,1.8,0.7,3.6,1.2,5.7
		C132.1,223.3,128.8,223.8,125.4,224.3z M136.6,222.4c-0.5-2-0.9-3.8-1.3-5.7c3.1-0.8,6.2-1.6,9.3-2.5c0.6,1.8,1.1,3.6,1.8,5.6
		C143,220.7,139.9,221.6,136.6,222.4z M147.4,219.4c-0.6-1.9-1.2-3.7-1.8-5.5c3.1-1.1,6-2.2,9-3.4c0.8,1.7,1.5,3.4,2.3,5.2
		C153.7,217,150.6,218.2,147.4,219.4z M158,215.4c-0.9-1.9-1.6-3.6-2.4-5.3c2.3-1.2,4.5-2.3,6.8-3.4c0.9,1.6,1.9,3.2,2.9,5
		C162.9,212.9,160.5,214.1,158,215.4z M169.7,209.1c-1-1.7-1.9-3.3-2.9-5c2.1-1.4,4.1-2.8,6.3-4.3c1.1,1.5,2.2,3,3.4,4.7
		C174.2,206.1,172,207.6,169.7,209.1z M177.5,204c-1.2-1.6-2.4-3.1-3.5-4.7c2.4-2,4.8-4,7.4-6.1c1.3,1.4,2.6,2.8,4,4.4
		C182.8,199.7,180.2,201.8,177.5,204z M185.9,196.5c-1.1-1.2-2.4-2.6-3.6-4c2.3-2.3,4.6-4.4,6.9-6.7c1.3,1.1,2.6,2.4,4.1,3.7
		C190.8,191.9,188.4,194.1,185.9,196.5z M194.1,188.8c-1.6-1.5-2.9-2.7-4.3-3.9c2-2.4,3.9-4.9,6-7.4c1.5,1.1,3,2.2,4.7,3.4
		C198.4,183.5,196.3,186.1,194.1,188.8z M201.1,179.9c-1.6-1.2-3.1-2.3-4.8-3.4c1.4-2.1,2.8-4.2,4.2-6.3c1.7,0.9,3.3,1.9,5.1,2.9
		C204.1,175.4,202.6,177.6,201.1,179.9z M208.3,168.6c-1.8-1-3.4-1.9-5.1-2.9c1.1-2.3,2.3-4.5,3.4-6.8c1.7,0.8,3.4,1.6,5.3,2.4
		C210.7,163.7,209.6,166.1,208.3,168.6z M212.4,160.4c-1.8-0.9-3.5-1.6-5.3-2.4c1.1-3,2.2-6,3.4-9c1.8,0.6,3.5,1.1,5.6,1.9
		C214.8,154.1,213.6,157.2,212.4,160.4z M216.4,149.8c-2-0.7-3.8-1.2-5.6-1.8c0.8-3.2,1.6-6.2,2.5-9.2c1.8,0.4,3.7,0.8,5.7,1.2
		C218.1,143.3,217.3,146.5,216.4,149.8z M219.2,138.8c-2-0.4-3.8-0.8-5.7-1.2c0.5-3.2,1-6.3,1.5-9.5c1.9,0.2,3.7,0.4,5.8,0.6
		C220.2,132.1,219.7,135.4,219.2,138.8z M220.9,127.6c-2-0.2-3.9-0.4-5.7-0.6c0.1-2.5,0.3-5,0.4-7.5c1.9,0,3.8,0,5.8,0
		C221.2,122.2,221.1,124.8,220.9,127.6z M215.6,114.3c-0.2-2.4-0.3-4.9-0.5-7.5c1.9-0.2,3.8-0.4,5.9-0.6c0.2,2.8,0.3,5.4,0.5,8.1
		C219.5,114.3,217.6,114.3,215.6,114.3z"/>
	<path class="st0" d="M56.6,48.4c0.7,0.2,1.4,0.2,2,0.5c2.8,1.7,5.6,3.5,8.4,5.4c0.4,0.2,0.7,0.7,0.8,1.1c0.9,3.5,1.6,7,2.4,10.5
		c0.1,0.4,0.2,1,0,1.2c-0.6,0.8,0,1,0.4,1.5c1.1-0.9,2.2-1.6,3.3-2.4c0-0.2,0-0.3,0-0.5c-0.5-0.1-1.1-0.3-1.6-0.4
		c-0.1,0.1-0.2,0.2-0.3,0.3c-0.9-3.2-1.8-6.4-2.7-9.6c0.2-0.1,0.3-0.1,0.4-0.2c2.7,2,5.4,3.9,8.1,5.9c-0.5,0.5-0.7,0.8-1,1.1
		c0.2,0.2,0.3,0.3,0.4,0.5s0.3,0.3,0.2,0.2c3.4-1.8,6.6-3.5,9.9-5.3c0-0.1,0-0.3-0.1-0.4c-0.1-0.2-0.2-0.3-0.3-0.5
		c-1.3,0.1-1.3,0.2-1.9-1c-3-6-6-12.1-9-18.1c-0.4-0.8-0.6-1.6,0.6-2c-0.3-0.4-0.5-0.7-0.7-1.1c-1.7,0.9-3.2,1.6-4.8,2.4
		c0.2,0.4,0.4,0.7,0.6,1.1c1.3-0.7,1.6,0.3,2,1.1c1.6,3.2,3.3,6.4,4.9,9.7c1.3,2.8,2.6,5.5,3.9,8.3c0.2,0.6,0.6,1.4-0.4,1.7
		c-0.8,0.3-1.6,0.5-2.5-0.1c-3.2-2.2-6.5-4.3-9.7-6.4c-0.3-0.2-0.6-0.8-0.7-1.2c-0.7-2.9-1.5-5.9-2.1-8.9c-0.1-0.7,0.1-1.5,0.2-2.2
		c0.2,0,0.3,0,0.4,0c-0.2-0.3-0.4-0.6-0.7-0.9c-1.2,0.9-2.4,1.8-3.7,2.7c0.3,0.3,0.5,0.6,0.7,0.9c0-0.1,0.1-0.2,0.1-0.3
		c0.5,0.1,1.3,0.1,1.4,0.4c0.9,2.7,1.7,5.3,2.6,8c-0.2,0-0.3,0.1-0.4,0.2c-2.1-1.6-4.3-3.2-6.4-4.8c-0.8-0.5-0.8-1.1,0-1.6
		c0.1,0,0.1-0.1,0.1-0.2c-0.2-0.2-0.4-0.5-0.7-0.9c-1.6,1.1-3.2,2.2-5.1,3.5C56,47.9,56.2,48.3,56.6,48.4z"/>
	<path class="st0" d="M96,31.7c1.7,2.8,3.3,5.6,4.9,8.5c0.2,0.4,0.3,1,0.2,1.4c-1.3,4-1.2,8.3-3.8,11.9c-0.1,0.1-0.1,0.1-0.1,0.2
		c0.1,0.3,0.2,0.6,0.3,1c1.3-0.2,2.6-0.4,4.2-0.6c-0.3-0.5-0.5-1.1-0.7-1.1c-1.1,0-0.9-0.8-0.8-1.4c0.4-2.2,0.9-4.3,1.3-6.4
		c0.1-0.8,0.3-1.5,0.5-2.3c1.4,2.2,2.7,4.3,3.7,6.6c0.4,0.8,2.1,2-0.1,2.8c0,0,0,0.1-0.1,0.2c0,0.3,0.1,0.6,0.1,0.6
		c3.8,0,7.5,0,11.3,0c-0.2-0.5-0.2-1.2-0.4-1.2c-1.1-0.3-0.9-1.1-0.9-1.9c0.1-6.5,0.3-13.1,0.4-19.6c0.1-0.8-0.2-1.8,1.1-2
		c0.2,0,0.2-0.7,0.4-1.3c-1.7,0-3.3,0-4.8,0c-0.2,0.1-0.6,0.3-0.6,0.5s0.1,0.7,0.3,0.7c1,0.2,0.9,0.9,0.9,1.5c0,4.7,0,9.4-0.1,14.1
		c0,2.2-0.1,4.3-0.2,6.5c0,0.7-0.1,1.4-1,1.2c-0.9-0.1-1.7-0.3-2.2-1.2c-1.9-3.4-3.9-6.7-5.8-10.1c-0.1-0.2-0.3-0.6-0.2-0.8
		c0.4-2,0.7-4.1,1.4-6c0.6-1.8,0.1-4.1,2.3-5.3c0,0,0-0.1,0.1-0.2c-0.1-0.2-0.1-0.5-0.2-0.9c-1.5,0.2-3,0.4-4.5,0.6
		c0,0.4,0.1,0.8,0.1,1.1c0.1-0.1,0.2-0.1,0.3-0.2c0.4,0.4,1,0.8,1,1.2c-0.4,2.8-0.9,5.5-1.3,8.2c-0.1,0-0.3,0.1-0.4,0.2
		c-1.2-2.6-2.4-5.1-3.6-7.7c-0.1-0.2,0.1-0.8,0.3-0.8c1-0.1,0.7-0.7,0.5-1.4c-1.7,0.2-3.4,0.4-5.1,0.7c-0.3,0.1-0.6,0.4-0.6,0.6
		s0.2,0.5,0.4,0.7C95,30.8,95.7,31.1,96,31.7z"/>
	<path class="st0" d="M35.6,76.4c3.3,0.5,6.5,1,9.8,1.6c0.6,0.1,1.3,0.5,1.7,1c1.4,1.6,2.6,3.3,3.8,5c1.1,1.6,2.9,2.9,3.1,5.3
		c0.2,0.1,0.5,0.2,0.9,0.4c0.7-1.2,1.4-2.3,2.1-3.5c-0.4-0.2-0.7-0.4-1-0.6c-0.4,0.3-0.6,0.5-1.1,0.9c-2.2-2.6-4.3-5.1-6.4-7.7
		c0.1-0.1,0.1-0.2,0.2-0.3c2.9,0.7,5.8,1.3,8.7,1.9c0.9,0.2,1.2,0.6,0.7,1.5c0,0.1,0.1,0.2,0.1,0.3c0.2,0.1,0.5,0.3,0.9,0.5
		c1.1-1.7,2.1-3.3,3.1-5c-0.3-0.2-0.6-0.4-0.9-0.6c0,0.1,0,0.2,0,0.3c-0.7,0-1.4,0.3-2.1,0.2c-3.7-0.5-7.5-1.1-11.2-1.8
		c-0.4-0.1-0.9-0.5-1.2-0.9c-1.5-1.9-2.9-3.8-4.4-5.7c-0.4-0.6-1-1.2-1.3-1.9c-0.3-0.6-0.3-1.3-0.5-2.1c-0.1,0-0.3-0.2-0.7-0.4
		c-0.8,1.4-1.6,2.7-2.4,4c0.4,0.2,0.7,0.4,1.1,0.6c0.2-0.4,0.4-0.7,0.8-1.3c2.2,2.5,4.1,4.7,6.1,7c0,0.1-0.1,0.2-0.3,0.2
		c-3-0.7-6-0.9-8.9-2.2c0.2-0.5,0.3-0.8,0.5-1.2c-0.4-0.2-0.7-0.4-1.1-0.6c-1,1.7-2,3.3-3,5c0.4,0.2,0.6,0.4,0.9,0.6
		C34.3,76.6,35,76.3,35.6,76.4z"/>
	<path class="st0" d="M26.1,115.3c3.2-1.1,6.5-2.1,9.8-3.1c0.3-0.1,0.7,0,1,0.1c3.4,1.6,6.7,3.3,10,5c0.3,0.2,0.5,0.5,0.8,0.7
		c0.3,0.3,0.7,0.6,1,0.9c0.1-0.1,0.2-0.2,0.3-0.3c0.1-1.3,0.2-2.6,0.3-4c-0.7,0-1.3-0.4-1.4,0.6c0,0.1-0.5,0.4-0.7,0.3
		c-2.9-1.2-5.8-2.5-8.7-3.7c0.1-0.1,0.1-0.3,0.1-0.4c2.9-0.7,5.8-1.5,8.7-2.2c1-0.3,1.3,0.2,1.2,1.2c0.5,0.1,0.8,0.1,1.3,0.1
		c0.1-2,0.3-3.9,0.4-5.8c-0.9-0.1-0.9,0-1.4,0.6c-0.2,0.3-0.6,0.5-1,0.6c-3.7,1.1-7.3,2.3-10.9,3.4c-0.5,0.1-1.3,0-1.8-0.2
		c-2.7-1.3-5.4-2.6-8.1-4c-0.6-0.3-1.1-1-1.6-1.5c0.1-0.1,0.1-0.2,0.2-0.3c-0.3,0-0.7,0-1.1,0c-0.1,1.5-0.2,3-0.3,4.5
		c0.4,0,0.8,0.1,1.1,0.1c0-0.2-0.1-0.3-0.1-0.4c0.5-0.3,1-0.8,1.3-0.7c2.6,0.9,5.2,2,7.8,3c-0.1,0.1-0.1,0.3-0.1,0.4
		c-2.6,0.6-5.1,1.2-7.7,1.9c-1,0.3-1.4,0-1.4-1c0,0-0.1-0.1-0.2-0.2c-0.3,0-0.6,0-1,0c-0.2,1.9-0.3,3.8-0.5,6c0.6-0.2,1-0.2,1.2-0.5
		C25.1,116.1,25.5,115.5,26.1,115.3z"/>
	<path class="st0" d="M161.3,189.6c-3.7-4.3-7.3-8.5-10.9-12.8c-1.4-1.7-2.7-3.5-4.1-5.3c-0.8,0.4-1.6,0.9-2.3,1.3
		c2,5.3,3.8,10.5,5.7,15.6c0.5,1.5,1.2,2.9,1.5,4.4c0.3,1.4,1.8,2.8,0.3,4.3c0.2,0.3,0.4,0.6,0.6,0.9c1.2-0.6,2.3-1.2,3.4-1.9
		c-0.2-0.4-0.4-0.7-0.6-1c-0.4,0.1-0.7,0.3-1.4,0.5c-2.2-6.2-4.4-12.3-6.5-18.4c0.3,0.1,0.4,0.1,0.4,0.1c3.7,4.8,7.5,9.6,11.2,14.3
		c0.5,0.6,0.4,1.1-0.3,1.5c-0.1,0-0.1,0.2-0.2,0.3c0.2,0.3,0.4,0.6,0.6,0.9c1.7-1,3.4-1.9,5.2-3c-0.4-0.4-0.7-0.7-1-0.9
		C162.4,190.1,161.7,190,161.3,189.6z"/>
	<path class="st0" d="M188.8,160.6c-4.7-1.9-9.4-3.9-14-5.9c-2.5-1.1-5-2.4-7.5-3.6c-0.5,0.8-1,1.5-1.5,2.3c2.1,2,4.2,3.9,6.3,5.7
		c3.5,3.3,7,6.7,10.5,10.1c0.4,0.5,1,1.1,0.9,1.5c-0.3,1,0.2,1.1,0.8,1.4c0.7-1.1,1.4-2.1,2.1-3.2c-0.4-0.3-0.6-0.5-1-0.7
		c-0.6,1.3-1.3,0.7-2,0.1c-3-2.8-6-5.7-9-8.6c-1.3-1.3-2.6-2.7-3.8-4c2,0.9,4.2,1.9,6.3,2.9c3.4,1.7,6.8,3.3,10.2,5
		c0.4,0.1,0.8,0.8,0.7,1c-0.4,0.9,0.1,1.1,0.8,1.3c1.1-1.6,2.1-3.2,3.3-4.9c-0.5-0.2-0.9-0.4-1.3-0.4
		C190,160.5,189.3,160.8,188.8,160.6z"/>
	<path class="st0" d="M62.6,155.4c-3,1.6-5.9,3.3-8.6,4.9c-4,2.1-7.9,4.2-11.8,6.3c-0.5,0.2-1.3,0.5-1.6,0.3c-0.7-0.5-1-0.2-1.5,0.4
		c0.8,1,1.7,2,2.5,3c0.3-0.4,0.6-0.6,0.9-0.9c-1-0.9-0.4-1.4,0.4-1.8c4.4-2.4,8.9-4.8,13.3-7.2c0.8-0.5,1.7-0.9,2.5-1.3
		c0.1,0.1,0.1,0.2,0.2,0.3c-4.3,4.6-8.7,9.3-13,13.9c-0.6-0.4-0.9-0.6-1.3-0.9c-0.3,0.2-0.6,0.4-0.9,0.7c1.2,1.6,2.4,3.1,3.6,4.6
		c0.3-0.3,0.6-0.5,0.9-0.7c-0.1-0.1-0.2-0.1-0.3-0.2c0.3-0.6,0.5-1.4,0.9-1.9c3.4-4,6.8-8,10.3-11.9c1.7-1.9,3.5-3.6,5.2-5.5
		C63.7,156.8,63.2,156.1,62.6,155.4z"/>
	<path class="st0" d="M126.2,203.3c-1.4-4.9-2.8-9.8-4.2-14.8c-0.7-2.7-1.3-5.4-1.9-8.1c-0.9,0.1-1.8,0.2-2.6,0.3
		c0,0.2-0.1,0.3-0.1,0.4c-0.7,7.6-1.3,15.3-2,22.9c-0.1,0.4-0.3,1.2-0.6,1.3c-0.9,0.4-0.6,0.9-0.4,1.5c1.3-0.2,2.5-0.3,4-0.4
		c-0.3-0.5-0.5-1.1-0.9-1.1c-1.2-0.1-1.1-0.9-1-1.6c0.2-2.8,0.4-5.7,0.7-8.5c0.3-3.2,0.7-6.3,1-9.7c0.2,0.3,0.3,0.4,0.3,0.5
		c1.4,5.8,2.7,11.6,4.1,17.4c0.2,1,0.1,1.5-0.9,1.6c0,0-0.1,0.1-0.2,0.2c0.1,0.3,0.1,0.6,0.2,1c2-0.2,3.8-0.4,6-0.6
		c-0.2-0.5-0.4-0.9-0.6-1.2C126.9,204,126.3,203.7,126.2,203.3z"/>
	<path class="st0" d="M88,180.6c-3.1,5.4-6.2,10.7-9.3,16.1c-0.3,0.4-0.9,0.7-1.3,1.1c-0.3,0.2-0.6,0.5-1.2,0.9c1.6,0.5,2.8,1,4,1.4
		c0.1-0.5,0.2-0.8,0.4-1.2c-1.3-0.3-1-1.1-0.5-1.9c2.1-3.6,4.2-7.3,6.3-11c0.9-1.5,1.9-3.1,2.8-4.6c0,1.3-0.2,2.6-0.5,3.8
		c-1,4.6-1.9,9.3-2.9,13.9c-0.2,1-0.5,1.9-1.7,1.2c-0.4,0.6-0.5,1.1,0.3,1.4c1.6,0.5,3.2,1.1,4.8,1.7c0.1-0.4,0.3-0.7,0.4-1.1
		c-1.2-0.5-0.8-1.5-0.7-2.3c0.6-4.3,1.3-8.5,2-12.8c0.5-3.2,1.2-6.5,1.9-9.8c-0.8-0.3-1.6-0.6-2.5-0.9
		C89.5,177.9,88.8,179.3,88,180.6z"/>
	<path class="st0" d="M73.4,194c3.3-6.1,6.5-12.1,9.8-18.2c0.4-0.7,0.9-1.1,1.7-0.4c0.2-0.4,0.4-0.8,0.6-1.2
		c-1.6-0.8-3.1-1.6-4.7-2.5c-0.2,0.4-0.3,0.8-0.5,1.1c0.9,0.8,1,0.9,0.4,1.9c-3.2,6-6.5,12-9.7,18c-0.4,0.8-0.8,1.5-1.8,0.7
		c-0.2,0.4-0.4,0.7-0.6,1.1c1.6,0.9,3.2,1.7,4.8,2.6c0.2-0.3,0.4-0.6,0.7-1.1C72.9,195.5,73.2,194.8,73.4,194z"/>
	<path class="st0" d="M48.5,123.7c0.2,1,0.7,0.7,1.4,0.6c-0.1-1.8-0.2-3.5-0.4-5.6c-0.6,0.4-1.1,0.5-1.4,0.9c-0.1,0.9-0.8,0.9-1.4,1
		c-2.4,0.2-4.7,0.4-7.1,0.6c-4.4,0.3-8.8,0.6-13.2,0.9c-0.5,0-1.3-0.2-1.4-0.5c-0.3-1.1-0.8-0.6-1.4-0.5c0.2,1.7,0.3,3.4,0.5,5.4
		c0.6-0.3,1.2-0.5,1.2-0.7c0.1-0.9,0.7-0.9,1.3-1c7-0.5,13.9-1.1,20.9-1.6C47.8,123.2,48.5,123.5,48.5,123.7z"/>
	<path class="st0" d="M200.5,114.9c-2.9,0.1-5.9,0.2-8.9,0.2c-3.8,0-7.7,0-11.5-0.1c-0.5,0-1.4-0.3-1.5-0.6c-0.3-1-0.8-0.6-1.3-0.5
		c0,1.8,0,3.5,0,5.4c0.6-0.2,1.2-0.2,1.2-0.4c0.1-1,0.8-1,1.5-1c6.8,0,13.5-0.1,20.3-0.1c0.9,0,1.6,0.2,1.6,1.3
		c0.5-0.1,0.8-0.1,1.2-0.1c0-1.8,0-3.5,0-5.6c-0.5,0.3-1.1,0.4-1.3,0.7C201.6,114.8,201.1,114.9,200.5,114.9z"/>
	<path class="st0" d="M189.7,74.7c-6.1,3.2-12.1,6.4-18.1,9.6c-0.8,0.4-1.4,0.5-1.8-0.5c-0.4,0.3-0.8,0.5-1.1,0.7
		c0.9,1.6,1.7,3.1,2.5,4.7c0.4-0.2,0.7-0.3,1-0.5c-0.3-1.2-0.3-1.3,0.9-1.9c5.4-2.9,10.8-5.8,16.3-8.6c1-0.5,2.1-2.2,3.5-0.5
		c0,0,0.1,0,0.2,0c0.3-0.2,0.6-0.4,0.9-0.6c-0.8-1.6-1.7-3.1-2.6-4.8c-0.4,0.4-0.9,0.8-0.8,0.8C191.1,74.1,190.3,74.4,189.7,74.7z"
		/>
	<path class="st0" d="M34.9,154.2c1.8-0.9,3.6-1.8,5.4-2.6c4.4-2,8.9-3.9,13.3-5.9c0.4-0.1,1.1-0.2,1.3,0c0.6,0.8,1,0.4,1.6,0
		c-0.7-1.6-1.4-3.1-2.2-4.7c-0.4,0.2-0.8,0.3-1.2,0.5c0.7,1.1,0,1.4-0.8,1.5c-6.2,2.9-12.5,5.7-18.7,8.6c-0.9,0.4-1.4,0.1-1.8-0.7
		c-0.4,0.2-0.7,0.4-1.1,0.6c0.7,1.7,1.5,3.3,2.3,5.1c0.4-0.4,1-0.8,0.9-1C33.7,154.7,34.3,154.5,34.9,154.2z"/>
	<path class="st0" d="M177.8,108.2c0-0.1,0.1-0.3,0.1-0.4c-0.3,0-0.7,0-1.1,0.1c0.2,1.8,0.3,3.5,0.5,5.3c0.5-0.1,0.8-0.1,1.3-0.1
		c-0.3-1.2,0.4-1.4,1.3-1.4c3.4-0.3,6.8-0.8,10.3-1.1c3.3-0.4,6.7-0.7,10.1-0.9c0.4,0,1.2,0.2,1.3,0.5c0.4,0.8,0.8,0.6,1.4,0.4
		c-0.2-1.7-0.4-3.4-0.6-5.4c-0.5,0.2-1.1,0.4-1.1,0.6c0,1-0.6,1-1.3,1.1c-6.9,0.7-13.7,1.4-20.6,2
		C178.9,108.9,178.3,108.4,177.8,108.2z"/>
	<path class="st0" d="M66.2,190.2c3.7-5.7,7.6-11.5,11.4-17.2c0.4-0.7,0.9-1.4,1.8-0.5c0.2-0.4,0.4-0.7,0.7-1.1
		c-1.5-1-2.9-1.9-4.4-2.9c-0.2,0.4-0.4,0.7-0.7,1.1c1,0.5,0.8,1.2,0.3,1.9c-2.4,3.7-4.8,7.4-7.2,11.1c-1.4,2-2.8,4-4.2,6
		c-0.2,0.3-0.9,0.7-1.1,0.6c-0.8-0.4-0.9,0.2-1.3,0.8c1.6,1,3,2,4.5,2.8c0.2-0.4,0.4-0.7,0.6-1c-0.1,0-0.3,0-0.4,0
		C66.2,191.3,65.9,190.6,66.2,190.2z"/>
	<path class="st0" d="M199.5,123.1c-6.5-0.6-13.1-1.2-19.6-1.8c-0.8-0.1-1.5-0.2-1.3-1.4c-0.5,0-0.9,0-1.3,0
		c-0.2,1.7-0.3,3.4-0.5,5.2c0.5,0,0.8,0.1,1.3,0.1c0-1.2,0.7-1.3,1.6-1.2c2.6,0.2,5.1,0.4,7.7,0.6c4.3,0.4,8.5,0.8,12.8,1.3
		c0.4,0.1,1.1,0.4,1.1,0.7c0.1,0.9,0.6,0.7,1.3,0.7c0.2-1.8,0.3-3.5,0.5-5.4c-0.6,0.1-1.2,0.1-1.3,0.3
		C201.4,123.6,200.3,123.2,199.5,123.1z"/>
	<path class="st0" d="M169.4,83.3c-0.5-1.1-0.5-1.2,0.6-1.9c5.2-3.4,10.4-6.9,15.6-10.2c0.9-0.6,1.9-2.3,3.4-0.8c0,0,0.1,0,0.2,0
		c0.2-0.1,0.5-0.4,0.8-0.6c-1-1.5-1.9-2.9-2.9-4.4c-0.4,0.3-0.7,0.4-1.1,0.7c1,1.2-0.2,1.6-0.7,2c-5.2,3.4-10.3,6.8-15.5,10.1
		c-0.9,0.5-1.8,2.2-3.3,0.7c0,0-0.1,0-0.2,0c-0.2,0.2-0.5,0.4-0.8,0.7c1,1.5,1.9,2.9,2.9,4.4C168.8,83.7,169.1,83.5,169.4,83.3z"/>
	<path class="st0" d="M147.2,61c-0.7-0.4-1-0.9-0.6-1.9c3.3-6,6.6-12,9.9-18c0.4-0.7,0.9-1.4,1.9-0.7c0.2-0.4,0.4-0.7,0.6-1.1
		c-1.6-0.9-3.1-1.7-4.8-2.6c-0.1,0.5-0.3,1.1-0.2,1.2c1.1,0.7,0.4,1.4,0.1,2c-2.9,5.5-5.9,11-9,16.4c-0.5,0.9-0.5,2.8-2.5,2.1
		c-0.1,0-0.1,0.1-0.2,0.1c-0.2,0.3-0.3,0.6-0.5,1c1.6,0.9,3.1,1.7,4.7,2.6C146.8,61.7,147,61.4,147.2,61z"/>
	<path class="st0" d="M31.8,146.9c6.3-2.3,12.7-4.6,19-6.9c0.9-0.3,1.6-0.4,2,0.7c0.4-0.1,0.7-0.3,1.1-0.5c-0.6-1.6-1.2-3.2-1.9-5.1
		c-0.4,0.4-0.9,0.7-0.9,0.9c0.3,1-0.5,1.2-1.1,1.4c-6.3,2.3-12.6,4.7-18.9,7c-0.9,0.3-1.6,0.4-2-0.6c-0.9,0.2-1.1,0.5-0.8,1.3
		c0.5,1.3,0.9,2.5,1.4,3.8c0.1,0.1,0.1,0.2,0.2,0.3c0.3-0.2,0.6-0.3,1-0.4C30.8,147.6,30.8,147.5,31.8,146.9z"/>
	<path class="st0" d="M39.1,161.3c5.8-3.3,11.6-6.7,17.4-10c0.8-0.4,1.4-0.6,1.9,0.4c0.4-0.3,0.8-0.5,1.1-0.7
		c-1-1.6-1.8-3.1-2.7-4.6c-0.4,0.2-0.7,0.3-1,0.5c0.3,1.2,0.3,1.3-0.7,1.9c-5.9,3.4-11.8,6.8-17.7,10.2c-0.7,0.4-1.4,0.7-1.9-0.4
		c-0.4,0.3-0.7,0.5-1,0.7c0.9,1.6,1.7,3.1,2.8,4.9c0.4-0.5,0.9-0.9,0.8-1.1C37.5,162,38.4,161.7,39.1,161.3z"/>
	<path class="st0" d="M123.1,53.6c-0.2-0.5-0.2-1.2-0.3-1.4c-1-0.2-0.9-0.9-0.8-1.6c0.6-6.2,1.2-12.3,2-18.5
		c0.2-1.1-0.5-2.9,1.6-3.1c0,0,0,0,0.1-0.1c0.1-0.3,0.1-0.6,0.1-1c-1.6-0.2-3.2-0.4-4.7-0.5c-0.2,0-0.6,0.2-0.6,0.4
		c-0.1,0.3,0.1,0.8,0.2,0.8c0.9,0.3,0.8,1,0.7,1.6c-0.2,2-0.4,4.1-0.6,6.1c-0.5,4.7-1.1,9.5-1.7,14.3c-0.1,0.4-0.5,1.1-0.7,1.1
		c-1,0.1-0.7,0.7-0.7,1.3C119.4,53.2,121.1,53.4,123.1,53.6z"/>
	<path class="st0" d="M107.1,181.7c0.2,0.4,0.7,0.8,0.7,1.2c-0.1,2.2-0.2,4.3-0.3,6.5c-0.3,4.8-0.6,9.5-1,14.2
		c0,0.4-0.4,0.9-0.7,1.3c-0.2,0.3-0.5,0.6-0.8,0.9c0,0.1,0.1,0.2,0.2,0.3c1.7,0.2,3.4,0.3,5.5,0.4c-0.2-0.6-0.3-1.2-0.6-1.2
		c-1-0.3-0.8-1-0.8-1.7c0.4-6.2,0.7-12.4,1.2-18.6c0.1-1.1-0.6-2.8,1.4-3.1c0,0,0-0.1,0.1-0.2c0-0.2,0-0.6,0-1
		c-1.7-0.1-3.4-0.3-5.5-0.4C106.7,180.9,106.9,181.3,107.1,181.7z"/>
	<path class="st0" d="M192.7,152.6c-1.8-0.8-3.6-1.6-5.4-2.4c-4.4-2.1-8.7-4.3-13.1-6.4c-0.4-0.2-0.6-0.7-0.9-1.1
		c-0.2-0.4-0.4-0.8-0.6-1.2c-0.2,0-0.3,0.1-0.4,0.1c-0.7,1.6-1.4,3.2-2.2,4.8c0.4,0.2,0.7,0.4,1.1,0.6c0.5-1.2,1.2-0.9,2-0.5
		c2.3,1.1,4.7,2.1,7,3.2c3.8,1.8,7.6,3.6,11.4,5.5c0.4,0.2,1,0.8,0.9,1.1c-0.2,0.8,0.3,0.9,1,1.1c0.7-1.7,1.5-3.2,2.2-4.7
		c-0.4-0.2-0.7-0.4-1.1-0.6C194.2,153.2,193.5,152.9,192.7,152.6z"/>
	<path class="st0" d="M175.5,116.9c0-34.3-27.9-62.2-62.2-62.2s-62.2,27.9-62.2,62.2c0,34.3,27.9,62.2,62.2,62.2
		S175.5,151.2,175.5,116.9z M113.3,177.1c-33.2,0-60.2-27-60.2-60.2c0-33.2,27-60.2,60.2-60.2s60.2,27,60.2,60.2
		C173.5,150.1,146.5,177.1,113.3,177.1z"/>
</g>
<g>
	<g>
		<path class="st1" d="M113.3,211c-51.9,0-94.1-42.2-94.1-94.1c0-51.9,42.2-94.1,94.1-94.1c51.9,0,94.1,42.2,94.1,94.1
			C207.4,168.8,165.2,211,113.3,211z M113.3,23.8c-51.3,0-93.1,41.8-93.1,93.1S62,210,113.3,210c51.3,0,93.1-41.8,93.1-93.1
			S164.6,23.8,113.3,23.8z"/>
	</g>
	<g>
		<path class="st2" d="M58.8,48.9c2.8,1.8,5.7,3.6,8.4,5.4c0.4,0.2,0.7,0.7,0.8,1.1c0.8,3.5,1.6,7,2.4,10.5c0.1,0.4,0.1,0.9,0,1.2
			c-0.6,0.8,0,1,0.4,1.5c1.2-0.8,2.2-1.6,3.3-2.4c0-0.2,0-0.3,0-0.5c-0.5-0.1-1.1-0.3-1.6-0.4c-0.1,0.1-0.2,0.2-0.3,0.3
			c-0.9-3.2-1.8-6.4-2.7-9.6c0.1-0.1,0.2-0.1,0.4-0.2c2.7,1.9,5.4,3.9,8.1,5.9c-0.5,0.5-0.7,0.8-1,1.1c0.1,0.2,0.2,0.4,0.4,0.5
			c0.1,0.1,0.3,0.3,0.2,0.2c3.4-1.8,6.6-3.5,9.9-5.3c0-0.1-0.1-0.3-0.1-0.4c-0.1-0.2-0.2-0.4-0.3-0.5c-1.3,0.2-1.3,0.2-1.9-1
			c-3-6-6-12.1-9-18.1c-0.4-0.8-0.6-1.6,0.6-2c-0.3-0.4-0.5-0.7-0.7-1.1c-1.6,0.8-3.2,1.6-4.8,2.4c0.2,0.4,0.4,0.7,0.6,1.1
			c1.3-0.7,1.6,0.3,2,1.1c1.7,3.2,3.3,6.5,4.9,9.7c1.4,2.7,2.6,5.5,3.9,8.3c0.3,0.6,0.7,1.4-0.4,1.7c-0.8,0.2-1.6,0.4-2.5-0.1
			c-3.2-2.2-6.5-4.2-9.7-6.4c-0.4-0.2-0.6-0.8-0.7-1.2c-0.7-3-1.5-5.9-2.1-8.9c-0.1-0.7,0.1-1.5,0.2-2.2c0.1,0,0.2,0,0.4,0
			c-0.2-0.3-0.4-0.6-0.7-0.9c-1.3,0.9-2.5,1.8-3.7,2.7c0.3,0.4,0.5,0.6,0.7,0.9c0-0.1,0.1-0.2,0.1-0.3c0.5,0.1,1.3,0.2,1.4,0.4
			c0.9,2.6,1.8,5.3,2.6,8c-0.1,0.1-0.2,0.2-0.4,0.2c-2.1-1.6-4.3-3.2-6.4-4.8c-0.8-0.6-0.7-1.1,0-1.6c0.1,0,0.1-0.1,0.1-0.2
			c-0.2-0.3-0.4-0.5-0.7-0.9c-1.7,1.2-3.2,2.3-4.9,3.5c0.4,0.3,0.7,0.7,1,0.8C57.5,48.6,58.2,48.6,58.8,48.9z"/>
	</g>
	<g>
		<path class="st2" d="M96,31.6c1.7,2.8,3.3,5.6,4.9,8.5c0.2,0.4,0.3,1,0.2,1.4c-1.2,4-1.2,8.4-3.8,11.9c0,0,0,0.1-0.1,0.2
			c0.1,0.3,0.1,0.6,0.3,1c1.4-0.2,2.7-0.4,4.2-0.6c-0.3-0.5-0.5-1.1-0.7-1.1c-1.1,0-0.9-0.8-0.8-1.4c0.4-2.1,0.8-4.2,1.3-6.4
			c0.2-0.8,0.3-1.5,0.5-2.3c1.4,2.2,2.7,4.4,3.7,6.6c0.4,0.8,2.1,2-0.1,2.8c0,0,0,0.1-0.1,0.2c0.1,0.3,0.1,0.6,0.1,0.6
			c3.8,0,7.5,0,11.3,0c-0.1-0.5-0.2-1.1-0.4-1.2c-1.1-0.3-1-1.1-0.9-1.9c0.1-6.5,0.2-13.1,0.4-19.6c0-0.8-0.3-1.8,1.1-2
			c0.1,0,0.2-0.7,0.4-1.3c-1.8,0-3.3,0-4.8,0c-0.2,0-0.5,0.3-0.6,0.5c0,0.2,0.2,0.7,0.3,0.7c0.9,0.2,0.9,0.9,0.9,1.5
			c0,4.7-0.1,9.4-0.1,14.1c0,2.2-0.1,4.3-0.2,6.5c0,0.7-0.1,1.3-1,1.2c-0.8-0.2-1.7-0.3-2.2-1.2c-1.9-3.4-3.9-6.7-5.8-10.1
			c-0.1-0.2-0.3-0.6-0.2-0.8c0.4-2,0.8-4,1.4-6c0.6-1.8,0.1-4.2,2.3-5.3c0,0,0-0.1,0.1-0.2c0-0.2-0.1-0.5-0.2-0.9
			c-1.5,0.2-2.9,0.4-4.5,0.6c0,0.4,0.1,0.8,0.1,1.1c0.1-0.1,0.2-0.1,0.3-0.2c0.3,0.4,1,0.8,1,1.2c-0.4,2.7-0.8,5.5-1.3,8.2
			c-0.1,0-0.3,0.1-0.4,0.1c-1.2-2.6-2.5-5.1-3.6-7.7c-0.1-0.2,0.2-0.8,0.3-0.8c1-0.2,0.7-0.7,0.5-1.4c-1.7,0.2-3.4,0.4-5.1,0.7
			c-0.2,0-0.5,0.4-0.6,0.6c0,0.2,0.2,0.5,0.4,0.7C95,30.7,95.7,31,96,31.6z"/>
	</g>
	<g>
		<path class="st2" d="M35.8,76.5c3.3,0.5,6.5,1,9.8,1.6c0.6,0.1,1.3,0.5,1.7,1c1.3,1.6,2.6,3.2,3.8,5c1.1,1.7,2.9,3,3.1,5.3
			c0.2,0.1,0.5,0.2,0.9,0.4c0.7-1.2,1.4-2.3,2.1-3.5c-0.4-0.2-0.7-0.4-1-0.6c-0.3,0.3-0.6,0.5-1.1,0.9c-2.2-2.6-4.3-5.2-6.4-7.7
			c0.1-0.1,0.1-0.2,0.2-0.3c2.9,0.6,5.8,1.3,8.7,1.9c1,0.2,1.3,0.6,0.7,1.5c0,0,0,0.2,0.1,0.3c0.3,0.2,0.6,0.3,0.9,0.5
			c1-1.7,2-3.4,3.1-5c-0.3-0.2-0.6-0.4-0.9-0.6c0,0.1,0,0.2,0,0.3c-0.7,0.1-1.4,0.3-2.1,0.2c-3.8-0.5-7.5-1.2-11.2-1.8
			c-0.5-0.1-0.9-0.5-1.2-0.9c-1.5-1.9-3-3.8-4.4-5.7c-0.5-0.6-1-1.2-1.3-1.9c-0.3-0.6-0.3-1.3-0.5-2.1c0,0-0.3-0.2-0.7-0.4
			c-0.8,1.3-1.6,2.6-2.4,4c0.4,0.2,0.7,0.4,1.1,0.6c0.2-0.4,0.5-0.7,0.8-1.3c2.2,2.5,4.2,4.8,6.1,7c-0.1,0.1-0.1,0.2-0.2,0.3
			c-2.9-0.7-6-0.9-8.9-2.2c0.2-0.5,0.3-0.9,0.5-1.2c-0.4-0.2-0.7-0.4-1.1-0.6c-1,1.7-2,3.3-3,5c0.4,0.3,0.7,0.5,0.9,0.6
			C34.5,76.6,35.2,76.4,35.8,76.5z"/>
	</g>
	<g>
		<path class="st2" d="M26.3,115.4c3.3-1.1,6.5-2.1,9.8-3.1c0.3-0.1,0.7-0.1,1,0.1c3.3,1.6,6.6,3.3,10,5c0.3,0.2,0.6,0.4,0.8,0.7
			c0.3,0.3,0.7,0.6,1,0.9c0.1-0.1,0.2-0.2,0.3-0.3c0.1-1.3,0.2-2.6,0.3-4c-0.6,0-1.2-0.4-1.4,0.6c0,0.1-0.6,0.4-0.7,0.3
			c-2.9-1.2-5.8-2.4-8.7-3.7c0-0.1,0-0.3,0.1-0.4c2.9-0.7,5.8-1.5,8.7-2.2c1-0.3,1.3,0.2,1.2,1.2c0.4,0,0.8,0,1.3,0.1
			c0.1-2,0.3-3.9,0.4-5.8c-1-0.1-0.9,0-1.4,0.6c-0.2,0.3-0.6,0.5-1,0.6c-3.6,1.2-7.2,2.3-10.9,3.4c-0.6,0.2-1.3,0.1-1.8-0.2
			c-2.7-1.3-5.5-2.6-8.1-4c-0.6-0.3-1.1-1-1.6-1.5c0.1-0.1,0.1-0.2,0.2-0.3c-0.4,0-0.7,0-1.1,0c-0.1,1.5-0.2,2.9-0.3,4.5
			c0.5,0,0.8,0.1,1.1,0.1c0-0.1-0.1-0.2-0.1-0.4c0.4-0.2,1-0.8,1.3-0.7c2.6,0.9,5.2,2,7.8,3c0,0.1,0,0.3-0.1,0.4
			c-2.6,0.6-5.2,1.2-7.7,1.9c-1,0.2-1.4,0-1.4-1c0-0.1-0.1-0.1-0.2-0.2c-0.3,0-0.6,0-1,0c-0.2,1.9-0.3,3.8-0.5,6
			c0.6-0.2,1-0.3,1.3-0.4C25.3,116.2,25.7,115.6,26.3,115.4z"/>
	</g>
	<g>
		<path class="st2" d="M161.3,189.6c-3.7-4.2-7.3-8.5-10.9-12.8c-1.4-1.7-2.7-3.5-4.1-5.3c-0.8,0.5-1.6,0.9-2.3,1.3
			c1.9,5.3,3.8,10.4,5.7,15.6c0.5,1.5,1.2,2.9,1.5,4.4c0.3,1.4,1.8,2.7,0.3,4.3c0.2,0.3,0.4,0.6,0.6,0.9c1.1-0.7,2.2-1.3,3.4-1.9
			c-0.3-0.4-0.4-0.7-0.6-1c-0.4,0.1-0.7,0.3-1.4,0.5c-2.2-6.2-4.3-12.2-6.5-18.4c0.3,0.1,0.4,0.1,0.4,0.1c3.7,4.8,7.5,9.5,11.2,14.3
			c0.5,0.6,0.4,1.1-0.3,1.5c-0.1,0.1-0.1,0.2-0.2,0.3c0.2,0.3,0.4,0.6,0.6,0.9c1.7-1,3.4-1.9,5.2-3c-0.4-0.4-0.7-0.7-1-0.9
			C162.4,190.1,161.7,190,161.3,189.6z"/>
	</g>
	<g>
		<path class="st2" d="M188.8,160.6c-4.7-1.9-9.3-3.9-14-5.9c-2.5-1.1-5-2.4-7.5-3.6c-0.5,0.8-1,1.5-1.5,2.3c2.2,2,4.2,3.9,6.3,5.9
			c3.5,3.4,7,6.7,10.5,10.1c0.4,0.4,1.1,1.1,0.9,1.5c-0.3,0.9,0.2,1,0.8,1.4c0.7-1.1,1.4-2.1,2.1-3.2c-0.4-0.3-0.7-0.5-1-0.7
			c-0.7,1.3-1.3,0.7-2,0.1c-3-2.9-6-5.7-9-8.6c-1.3-1.3-2.6-2.7-3.8-4c2,0.9,4.1,1.9,6.3,2.9c3.4,1.6,6.8,3.3,10.2,5
			c0.3,0.2,0.8,0.8,0.7,1c-0.4,0.9,0.1,1.1,0.8,1.3c1.1-1.6,2.1-3.2,3.3-4.9c-0.5-0.2-0.9-0.4-1.3-0.4
			C190,160.5,189.3,160.8,188.8,160.6z"/>
	</g>
	<g>
		<path class="st2" d="M62.6,155.4c-2.9,1.6-5.8,3.3-8.7,4.8c-3.9,2.1-7.8,4.2-11.8,6.3c-0.5,0.2-1.2,0.5-1.6,0.3
			c-0.8-0.5-1.1-0.1-1.5,0.4c0.8,1,1.6,2,2.5,3c0.4-0.4,0.6-0.6,0.9-0.9c-1-0.9-0.4-1.4,0.4-1.8c4.4-2.4,8.9-4.8,13.3-7.2
			c0.8-0.5,1.7-0.9,2.5-1.3c0.1,0.1,0.1,0.2,0.2,0.3c-4.3,4.6-8.7,9.3-13,13.9c-0.6-0.4-0.9-0.6-1.3-0.9c-0.3,0.2-0.6,0.4-0.9,0.7
			c1.2,1.6,2.4,3,3.6,4.6c0.4-0.3,0.6-0.5,0.9-0.7c-0.1-0.1-0.2-0.1-0.3-0.2c0.3-0.6,0.4-1.4,0.9-1.9c3.4-4,6.9-8,10.3-11.9
			c1.7-1.9,3.4-3.7,5.2-5.5C63.7,156.8,63.1,156.1,62.6,155.4z"/>
	</g>
	<g>
		<path class="st2" d="M126.3,203.2c-1.4-4.9-2.9-9.9-4.2-14.8c-0.7-2.7-1.3-5.4-1.9-8.1c-0.9,0.1-1.8,0.2-2.6,0.3
			c-0.1,0.2-0.1,0.3-0.1,0.4c-0.7,7.6-1.3,15.3-2,22.9c0,0.5-0.3,1.2-0.6,1.3c-0.9,0.3-0.7,0.8-0.4,1.5c1.2-0.1,2.5-0.2,4-0.4
			c-0.3-0.5-0.5-1.1-0.7-1.1c-1.2,0-1-0.8-1-1.6c0.2-2.8,0.5-5.7,0.7-8.5c0.3-3.2,0.6-6.4,1-9.7c0.2,0.3,0.3,0.4,0.3,0.5
			c1.4,5.8,2.7,11.6,4.1,17.4c0.2,0.9,0,1.4-0.9,1.6c-0.1,0-0.1,0.1-0.2,0.2c0.1,0.3,0.1,0.6,0.2,1c2-0.2,3.8-0.4,6-0.6
			c-0.3-0.5-0.4-0.9-0.6-1.2C127,204,126.5,203.7,126.3,203.2z"/>
	</g>
	<g>
		<path class="st2" d="M88.1,180.5c-3.1,5.4-6.2,10.8-9.3,16.1c-0.3,0.5-0.9,0.8-1.3,1.1c-0.3,0.3-0.7,0.5-1.2,0.9
			c1.6,0.6,2.7,1,4,1.4c0.2-0.4,0.3-0.8,0.4-1.2c-1.4-0.4-1-1.1-0.5-1.9c2.1-3.7,4.2-7.4,6.3-11c0.9-1.6,1.8-3.1,2.8-4.6
			c-0.1,1.3-0.3,2.6-0.5,3.8c-0.9,4.6-1.9,9.3-2.9,13.9c-0.2,1-0.4,1.9-1.7,1.2c-0.4,0.7-0.6,1.2,0.3,1.4c1.6,0.5,3.1,1.1,4.8,1.7
			c0.2-0.4,0.3-0.7,0.5-1.1c-1.2-0.5-0.8-1.5-0.7-2.3c0.7-4.3,1.3-8.6,2-12.8c0.6-3.3,1.3-6.5,1.9-9.8c-0.8-0.3-1.7-0.6-2.5-0.9
			C89.6,177.8,88.9,179.2,88.1,180.5z"/>
	</g>
	<g>
		<path class="st2" d="M73.6,194.1c3.3-6.1,6.5-12.1,9.8-18.2c0.4-0.7,0.8-1.1,1.7-0.4c0.2-0.4,0.4-0.8,0.6-1.2
			c-1.6-0.9-3.1-1.7-4.7-2.5c-0.2,0.4-0.4,0.8-0.5,1.1c0.9,0.8,1,0.9,0.4,1.9c-3.2,6-6.5,12-9.7,18c-0.4,0.7-0.8,1.4-1.8,0.7
			c-0.2,0.4-0.4,0.7-0.6,1.1c1.6,0.9,3.2,1.7,4.8,2.6c0.2-0.3,0.4-0.6,0.7-1.1C72.9,195.5,73.2,194.8,73.6,194.1z"/>
	</g>
	<g>
		<path class="st2" d="M48.5,123.7c0.2,1,0.8,0.7,1.4,0.6c-0.1-1.8-0.3-3.5-0.4-5.6c-0.6,0.4-1.2,0.5-1.2,0.8
			c-0.1,0.9-0.8,0.9-1.4,1c-2.4,0.2-4.7,0.5-7.1,0.6c-4.4,0.3-8.8,0.6-13.2,0.9c-0.5,0-1.3-0.2-1.4-0.5c-0.3-1-0.9-0.6-1.4-0.5
			c0.1,1.8,0.3,3.5,0.5,5.4c0.5-0.3,1.1-0.5,1.2-0.7c0.1-0.9,0.6-1,1.3-1c7-0.6,13.9-1.1,20.9-1.6C47.9,123.2,48.5,123.5,48.5,123.7
			z"/>
	</g>
	<g>
		<path class="st2" d="M201.9,114.1c-0.2,0.8-0.7,0.8-1.3,0.8c-3,0.1-6,0.1-8.9,0.2c-3.8,0-7.7,0-11.5-0.1c-0.5,0-1.4-0.3-1.5-0.6
			c-0.3-1-0.8-0.6-1.3-0.5c0,1.8,0,3.5,0,5.4c0.5-0.2,1.2-0.3,1.2-0.4c0.1-1,0.8-1,1.5-1c6.8,0,13.5,0,20.3-0.1
			c0.9,0,1.5,0.2,1.6,1.3c0.4,0,0.8,0,1.2-0.1c0-1.8,0-3.5,0-5.6C202.6,113.7,202,113.8,201.9,114.1z"/>
	</g>
	<g>
		<path class="st2" d="M189.6,74.9c-6,3.2-12,6.4-18.1,9.6c-0.7,0.4-1.4,0.5-1.8-0.5c-0.4,0.3-0.7,0.5-1.1,0.7
			c0.9,1.6,1.7,3.1,2.5,4.7c0.4-0.2,0.7-0.4,1-0.5c-0.3-1.2-0.3-1.3,0.9-1.9c5.4-2.9,10.8-5.8,16.3-8.6c1-0.5,2.1-2.2,3.5-0.5
			c0,0,0.1,0,0.2,0c0.2-0.2,0.5-0.3,0.9-0.6c-0.9-1.6-1.7-3.1-2.6-4.8c-0.4,0.4-0.9,0.8-0.9,0.9C191,74.3,190.2,74.5,189.6,74.9z"/>
	</g>
	<g>
		<path class="st2" d="M35,154.3c1.8-0.9,3.6-1.8,5.4-2.6c4.4-2,8.9-4,13.3-5.9c0.4-0.2,1.1-0.2,1.3,0c0.6,0.8,1,0.3,1.6,0
			c-0.8-1.6-1.5-3.1-2.2-4.7c-0.4,0.2-0.7,0.3-1.2,0.5c0.7,1,0,1.4-0.8,1.8c-6.2,2.9-12.5,5.7-18.7,8.6c-0.9,0.4-1.4,0.1-1.8-0.7
			c-0.4,0.2-0.7,0.4-1.1,0.6c0.8,1.6,1.5,3.2,2.3,5.1c0.4-0.5,0.9-0.8,0.9-1C33.8,154.9,34.4,154.6,35,154.3z"/>
	</g>
	<g>
		<path class="st2" d="M177.8,108.1c0-0.1,0.1-0.3,0.1-0.4c-0.3,0-0.7,0.1-1.1,0.1c0.2,1.8,0.3,3.5,0.5,5.3c0.4,0,0.8,0,1.3-0.1
			c-0.2-1.1,0.4-1.3,1.2-1.4c3.5-0.4,6.9-0.8,10.3-1.1c3.4-0.3,6.7-0.6,10.1-0.9c0.4,0,1.2,0.2,1.3,0.5c0.3,0.8,0.8,0.6,1.4,0.4
			c-0.2-1.7-0.4-3.4-0.6-5.4c-0.5,0.3-1.1,0.4-1.1,0.6c0,1-0.7,1-1.3,1.1c-6.9,0.7-13.7,1.4-20.6,2
			C178.9,108.8,178.3,108.4,177.8,108.1z"/>
	</g>
	<g>
		<path class="st2" d="M66.3,190.3c3.8-5.8,7.6-11.5,11.4-17.2c0.5-0.7,0.9-1.4,1.8-0.5c0.3-0.4,0.5-0.7,0.7-1.1c-1.5-1-3-2-4.4-2.9
			c-0.3,0.4-0.5,0.7-0.7,1.1c1,0.5,0.8,1.2,0.3,1.9c-2.4,3.7-4.8,7.4-7.2,11.1c-1.3,2-2.8,4.1-4.2,6c-0.2,0.3-0.9,0.8-1.1,0.6
			c-0.9-0.4-0.9,0.2-1.3,0.8c1.5,1,3,2,4.5,2.9c0.3-0.4,0.4-0.7,0.6-1c-0.1,0-0.3,0-0.4,0C66.3,191.3,66,190.6,66.3,190.3z"/>
	</g>
	<g>
		<path class="st2" d="M199.6,123c-6.5-0.5-13.1-1.2-19.6-1.8c-0.8-0.1-1.6-0.2-1.3-1.4c-0.5,0-0.9,0-1.3,0
			c-0.2,1.8-0.3,3.5-0.5,5.2c0.5,0,0.8,0.1,1.3,0.1c0-1.2,0.7-1.2,1.6-1.2c2.6,0.2,5.1,0.4,7.7,0.6c4.3,0.4,8.5,0.8,12.8,1.3
			c0.4,0,1.1,0.4,1.1,0.7c0.1,0.9,0.6,0.8,1.3,0.7c0.2-1.7,0.3-3.4,0.5-5.4c-0.5,0.1-1.1,0.1-1.2,0.2
			C201.5,123.5,200.4,123,199.6,123z"/>
	</g>
	<g>
		<path class="st2" d="M169.4,83.3c-0.4-1.1-0.5-1.2,0.6-1.9c5.2-3.4,10.3-6.9,15.6-10.2c0.9-0.6,1.9-2.3,3.4-0.8c0,0,0.1,0,0.2,0
			c0.2-0.2,0.5-0.4,0.8-0.6c-1-1.5-1.9-3-2.9-4.4c-0.4,0.3-0.7,0.4-1.1,0.7c1,1.2-0.1,1.6-0.8,2c-5.1,3.4-10.3,6.8-15.5,10.1
			c-0.9,0.6-1.8,2.2-3.3,0.7c0,0-0.1,0-0.2,0c-0.2,0.2-0.5,0.4-0.8,0.7c1,1.5,1.9,2.9,2.9,4.4C168.7,83.7,169.1,83.5,169.4,83.3z"/>
	</g>
	<g>
		<path class="st2" d="M147.2,61c-0.7-0.4-1-0.9-0.6-1.7c3.3-6,6.6-12,9.9-18c0.4-0.8,0.9-1.5,1.9-0.7c0.2-0.4,0.4-0.7,0.6-1.1
			c-1.6-0.9-3.1-1.7-4.8-2.6c-0.1,0.5-0.3,1.1-0.2,1.2c1.1,0.7,0.4,1.4,0.1,2c-3,5.5-5.9,11-9,16.4c-0.5,0.9-0.5,2.8-2.5,2.1
			c0,0-0.1,0-0.2,0.1c-0.1,0.3-0.3,0.6-0.5,1c1.6,0.9,3.1,1.7,4.7,2.6C146.8,61.7,147,61.4,147.2,61z"/>
	</g>
	<g>
		<path class="st2" d="M32,147.1c6.3-2.3,12.7-4.6,19-6.9c0.9-0.3,1.6-0.5,2,0.7c0.4-0.2,0.7-0.3,1.1-0.5c-0.6-1.7-1.2-3.3-1.9-5.1
			c-0.4,0.4-1,0.7-0.9,0.9c0.2,1-0.5,1.2-1.1,1.4c-6.3,2.3-12.6,4.7-18.9,7c-0.9,0.3-1.6,0.4-2-0.6c-0.9,0.1-1.1,0.5-0.8,1.3
			c0.5,1.2,0.9,2.5,1.4,3.8c0,0.1,0.1,0.2,0.2,0.3c0.4-0.1,0.7-0.3,1-0.4C30.8,147.6,30.8,147.5,32,147.1z"/>
	</g>
	<g>
		<path class="st2" d="M39.1,161.3c5.8-3.3,11.6-6.7,17.4-10c0.8-0.4,1.4-0.6,1.9,0.4c0.4-0.3,0.7-0.5,1.1-0.7
			c-0.9-1.6-1.8-3-2.7-4.6c-0.4,0.2-0.7,0.4-1,0.5c0.3,1.2,0.3,1.3-0.7,1.9c-5.9,3.4-11.8,6.8-17.7,10.2c-0.7,0.4-1.4,0.7-1.9-0.4
			c-0.4,0.3-0.7,0.4-1,0.7c0.9,1.6,1.8,3.1,2.8,4.9c0.4-0.5,0.9-0.9,0.8-1.1C37.5,162,38.4,161.7,39.1,161.3z"/>
	</g>
	<g>
		<path class="st2" d="M123.1,53.6c-0.2-0.6-0.2-1.2-0.4-1.3c-1-0.2-0.9-0.9-0.8-1.6c0.7-6.2,1.3-12.3,2-18.5
			c0.1-1.1-0.5-2.9,1.6-3.1c0,0,0.1-0.1,0.1-0.1c0-0.3,0-0.6,0.1-1c-1.6-0.2-3.1-0.4-4.7-0.5c-0.2,0-0.6,0.2-0.6,0.4
			c-0.1,0.3,0.1,0.8,0.2,0.8c0.9,0.2,0.8,0.9,0.7,1.6c-0.2,2-0.3,4.1-0.6,6.1c-0.6,4.8-1.1,9.6-1.7,14.3c-0.1,0.4-0.4,1.1-0.7,1.1
			c-1,0.1-0.8,0.7-0.7,1.3C119.4,53.2,121.1,53.4,123.1,53.6z"/>
	</g>
	<g>
		<path class="st2" d="M107.2,181.7c0.2,0.4,0.7,0.8,0.7,1.2c0,2.2-0.1,4.3-0.3,6.5c-0.3,4.7-0.6,9.4-1,14.2c0,0.5-0.4,0.9-0.7,1.3
			c-0.2,0.3-0.5,0.6-0.8,0.9c0.1,0.1,0.2,0.2,0.2,0.3c1.7,0.1,3.4,0.2,5.5,0.4c-0.2-0.6-0.3-1.2-0.5-1.3c-1-0.2-0.8-1-0.8-1.7
			c0.4-6.2,0.7-12.4,1.2-18.6c0.1-1.1-0.7-2.8,1.4-3.1c0,0,0-0.1,0.1-0.2c0-0.2,0-0.5,0-1c-1.8-0.1-3.5-0.2-5.5-0.4
			C106.8,181,107,181.4,107.2,181.7z"/>
	</g>
	<g>
		<path class="st2" d="M192.7,152.6c-1.8-0.8-3.6-1.6-5.4-2.4c-4.4-2.1-8.8-4.2-13.1-6.4c-0.4-0.2-0.7-0.7-0.9-1.1
			c-0.3-0.4-0.4-0.8-0.6-1.2c-0.1,0-0.2,0.1-0.4,0.1c-0.7,1.6-1.5,3.1-2.2,4.8c0.4,0.2,0.7,0.4,1.1,0.6c0.4-1.2,1.2-0.9,2-0.5
			c2.3,1.1,4.7,2.1,7,3.2c3.8,1.8,7.6,3.6,11.4,5.5c0.4,0.2,1,0.8,0.9,1.1c-0.2,0.9,0.3,1,1,1.1c0.8-1.6,1.5-3.1,2.3-4.7
			c-0.4-0.2-0.7-0.4-1.1-0.6C194.2,153.2,193.5,152.9,192.7,152.6z"/>
	</g>
	<g>
		<path class="st2" d="M113.3,178.6c-34,0-61.7-27.7-61.7-61.7c0-34,27.7-61.7,61.7-61.7S175,82.9,175,116.9
			C175,150.9,147.3,178.6,113.3,178.6z M113.3,56.2c-33.5,0-60.7,27.2-60.7,60.7c0,33.5,27.2,60.7,60.7,60.7
			c33.5,0,60.7-27.2,60.7-60.7C174,83.4,146.8,56.2,113.3,56.2z M113.3,176.1c-32.7,0-59.2-26.6-59.2-59.2s26.6-59.2,59.2-59.2
			s59.2,26.6,59.2,59.2S146,176.1,113.3,176.1z M113.3,58.7c-32.1,0-58.2,26.1-58.2,58.2c0,32.1,26.1,58.2,58.2,58.2
			s58.2-26.1,58.2-58.2C171.5,84.8,145.4,58.7,113.3,58.7z"/>
	</g>
	<g>
		<g>
			<g>
				<polygon class="st1" points="214.1,96.6 218.8,95.6 220.2,104.6 215.4,105.1 				"/>
			</g>
			<g>
				<path class="st0" d="M218.4,96.2l0.2,1.2l1.1,6.8l-0.3,0l-3.5,0.4l-0.1-0.4l-1.1-7.1L218.4,96.2 M219.2,95
					c-2,0.4-3.8,0.8-5.7,1.2c0.5,3.2,1,6.3,1.5,9.5c1.9-0.2,3.8-0.4,5.8-0.6C220.2,101.6,219.7,98.4,219.2,95L219.2,95z"/>
			</g>
		</g>
		<g>
			<g>
				<polygon class="st1" points="211.4,86.2 216,84.7 218.3,93.5 213.6,94.5 				"/>
			</g>
			<g>
				<path class="st0" d="M215.7,85.3l2.1,7.8l-2.4,0.5l-1.3,0.3l-2-7.4L215.7,85.3 M216.4,84c-2,0.6-3.8,1.2-5.6,1.8
					c0.8,3.1,1.6,6.1,2.5,9.3c1.9-0.4,3.7-0.8,5.7-1.2C218.1,90.6,217.2,87.4,216.4,84L216.4,84z"/>
			</g>
		</g>
		<g>
			<g>
				<polygon class="st1" points="207.6,76.1 212,74.1 215.3,82.7 210.7,84.2 				"/>
			</g>
			<g>
				<path class="st0" d="M211.8,74.8l0.2,0.6l2.7,7l-3.7,1.2l-2.8-7.2l1-0.4L211.8,74.8 M212.3,73.4c-1.9,0.9-3.6,1.6-5.3,2.4
					c1.1,3,2.2,5.8,3.4,8.9c1.8-0.6,3.6-1.2,5.6-1.8C214.7,79.7,213.5,76.6,212.3,73.4L212.3,73.4z"/>
			</g>
		</g>
		<g>
			<g>
				<polygon class="st1" points="203.8,68.2 208,65.8 211.2,72.2 206.8,74.2 				"/>
			</g>
			<g>
				<path class="st0" d="M207.8,66.5l2.7,5.4l-0.1,0l-3.4,1.5l-2.5-5.1l0.6-0.3L207.8,66.5 M208.2,65.1c-1.8,1-3.4,1.9-5.1,2.9
					c1.1,2.3,2.2,4.5,3.4,6.8c1.8-0.8,3.5-1.6,5.4-2.4C210.6,70,209.4,67.6,208.2,65.1L208.2,65.1z"/>
			</g>
		</g>
		<g>
			<g>
				<polygon class="st1" points="197.1,57.4 201,54.6 204.9,60.5 200.8,63 				"/>
			</g>
			<g>
				<path class="st0" d="M200.9,55.3l3.4,5l0,0l-3.3,1.9l-2-3.1l-1.1-1.7L200.9,55.3 M201.1,53.9c-1.6,1.2-3.1,2.3-4.7,3.4
					c1.4,2.1,2.8,4.2,4.2,6.3c1.7-1,3.3-1.9,5.1-2.9C204.1,58.4,202.6,56.2,201.1,53.9L201.1,53.9z"/>
			</g>
		</g>
		<g>
			<g>
				<polygon class="st1" points="190.4,49 194,45.8 199.8,52.9 195.9,55.7 				"/>
			</g>
			<g>
				<path class="st0" d="M194,46.5l5.1,6.3L196,55l-0.4-0.5l-4.4-5.4l2.3-2L194,46.5 M194.1,45.1c-1.6,1.4-3,2.7-4.3,3.9
					c2.1,2.5,4,5,6,7.5c1.6-1.2,3.1-2.3,4.7-3.4C198.3,50.3,196.2,47.7,194.1,45.1L194.1,45.1z"/>
			</g>
		</g>
		<g>
			<g>
				<polygon class="st1" points="183.1,41.1 186.1,37.8 192.4,44.4 189.2,47.3 				"/>
			</g>
			<g>
				<path class="st0" d="M186.1,38.5l5.6,5.8l-2.4,2.1l-0.1,0.1l-2-2l-3.5-3.5L186.1,38.5 M186.1,37.1c-1.4,1.5-2.6,2.9-3.7,4.1
					c2.3,2.3,4.5,4.5,6.8,6.8c1.3-1.1,2.6-2.4,4-3.6C190.8,41.9,188.5,39.5,186.1,37.1L186.1,37.1z"/>
			</g>
		</g>
		<g>
			<g>
				<polygon class="st1" points="174.7,34.5 177.5,30.6 184.6,36.3 181.3,39.9 				"/>
			</g>
			<g>
				<path class="st0" d="M177.6,31.3l3.6,2.9l2.7,2.2l-2.6,2.8l-2.4-1.9l-3.6-2.9L177.6,31.3 M177.4,29.8c-1.3,1.7-2.3,3.2-3.4,4.7
					c2.5,2.1,5,4,7.4,6c1.3-1.4,2.5-2.8,3.9-4.3C182.6,34.1,180,32,177.4,29.8L177.4,29.8z"/>
			</g>
		</g>
		<g>
			<g>
				<polygon class="st1" points="167.4,29.6 169.8,25.4 175.8,29.3 172.9,33.2 				"/>
			</g>
			<g>
				<path class="st0" d="M170,26.1l5.1,3.4l-0.7,1l-1.5,2.1l-0.1-0.1l-4.6-3.1l1.6-2.8L170,26.1 M169.7,24.7c-1,1.8-1.9,3.4-2.9,5
					c2.1,1.4,4.1,2.7,6.3,4.2c1.2-1.6,2.2-3.1,3.4-4.7C174.2,27.7,172,26.2,169.7,24.7L169.7,24.7z"/>
			</g>
		</g>
		<g>
			<g>
				<polygon class="st1" points="156.2,23.5 158.2,19.1 164.5,22.3 162.1,26.5 				"/>
			</g>
			<g>
				<path class="st0" d="M158.4,19.8l4.2,2.1l1.2,0.6l-0.2,0.4l-1.7,2.9l-3-1.5l-2.1-1L158.4,19.8 M157.9,18.4
					c-0.8,1.8-1.6,3.5-2.4,5.3c2.3,1.2,4.5,2.2,6.8,3.4c1-1.7,1.9-3.3,2.9-5C162.7,20.8,160.4,19.7,157.9,18.4L157.9,18.4z"/>
			</g>
		</g>
		<g>
			<g>
				<polygon class="st1" points="146.2,19.5 147.7,15 156.3,18.2 154.3,22.6 				"/>
			</g>
			<g>
				<path class="st0" d="M148,15.6l4.7,1.8l2.8,1.1l-1.2,2.8L154,22l-7.2-2.8l1-3L148,15.6 M147.4,14.3c-0.6,1.9-1.2,3.7-1.8,5.5
					c3,1.2,5.9,2.3,8.9,3.4c0.8-1.7,1.6-3.5,2.4-5.3C153.7,16.7,150.6,15.5,147.4,14.3L147.4,14.3z"/>
			</g>
		</g>
		<g>
			<g>
				<polygon class="st1" points="135.8,16.6 136.9,11.9 145.7,14.3 144.2,18.9 				"/>
			</g>
			<g>
				<path class="st0" d="M137.3,12.5l7.8,2.1l-0.4,1.4l-0.7,2.3l-7.5-2l0.4-2L137.3,12.5 M136.5,11.3c-0.4,2-0.9,3.9-1.3,5.7
					c3.2,0.9,6.2,1.7,9.3,2.5c0.6-1.9,1.2-3.6,1.8-5.6C143,13,139.8,12.2,136.5,11.3L136.5,11.3z"/>
			</g>
		</g>
		<g>
			<g>
				<polygon class="st1" points="125.3,14.8 125.8,10.1 134.8,11.5 133.8,16.2 				"/>
			</g>
			<g>
				<path class="st0" d="M126.2,10.6l8,1.3l-0.1,0.5l-0.7,3.3l-6.8-1.1l-0.8-0.1L126.2,10.6 M125.3,9.5c-0.2,2.1-0.4,3.9-0.6,5.8
					c3.2,0.5,6.2,1,9.5,1.5c0.4-1.9,0.8-3.7,1.2-5.7C132,10.5,128.7,10,125.3,9.5L125.3,9.5z"/>
			</g>
		</g>
		<g>
			<g>
				<polygon class="st1" points="116.6,14.3 116.6,9.4 123.7,9.8 123.2,14.6 				"/>
			</g>
			<g>
				<path class="st0" d="M117.1,9.9l6,0.4l-0.2,1.8l-0.2,2l-5.6-0.3V9.9 M116.1,8.9c0,2.1,0,3.9,0,5.9c2.6,0.1,5,0.3,7.6,0.4
					c0.2-2,0.4-3.8,0.6-5.8C121.4,9.2,118.8,9,116.1,8.9L116.1,8.9z"/>
			</g>
		</g>
		<g>
			<g>
				<polygon class="st1" points="103.3,9.8 110.4,9.4 110.4,14.2 103.8,14.6 				"/>
			</g>
			<g>
				<path class="st0" d="M109.9,9.9v3.9l-5.6,0.3l-0.1-1.1l-0.3-2.7L109.9,9.9 M110.9,8.8c-2.8,0.2-5.4,0.3-8.1,0.5
					c0.2,2.1,0.4,3.9,0.6,5.8c2.6-0.1,5-0.3,7.5-0.4C110.9,12.7,110.9,10.9,110.9,8.8L110.9,8.8z"/>
			</g>
		</g>
		<g>
			<g>
				<polygon class="st1" points="92.2,11.4 101.3,10 101.7,14.8 93.2,16.1 				"/>
			</g>
			<g>
				<path class="st0" d="M100.8,10.6l0.3,2.8l0.1,1l-7.6,1.2l-0.4-2l-0.4-1.7l5.4-0.8L100.8,10.6 M101.7,9.4
					c-3.5,0.5-6.7,1-10.1,1.6c0.4,2,0.8,3.9,1.2,5.7c3.2-0.5,6.3-1,9.5-1.5C102.1,13.3,101.9,11.5,101.7,9.4L101.7,9.4z"/>
			</g>
		</g>
		<g>
			<g>
				<polygon class="st1" points="81.3,14.2 90.1,11.8 91.2,16.6 82.8,18.8 				"/>
			</g>
			<g>
				<path class="st0" d="M89.8,12.5l0.5,2.3l0.3,1.5l-4.5,1.2l-2.9,0.8l-0.8-2.4l-0.4-1.2l4.2-1.1L89.8,12.5 M90.5,11.2
					c-3.4,0.9-6.6,1.8-9.9,2.6c0.7,2,1.2,3.8,1.8,5.5c3.2-0.8,6.1-1.6,9.3-2.5C91.3,15,90.9,13.2,90.5,11.2L90.5,11.2z"/>
			</g>
		</g>
		<g>
			<g>
				<polygon class="st1" points="70.7,18.1 79.3,14.8 80.8,19.4 72.7,22.5 				"/>
			</g>
			<g>
				<path class="st0" d="M79,15.5l1.2,3.6L73,21.9l-1.6-3.5l4.1-1.6L79,15.5 M79.6,14.2c-3.2,1.2-6.3,2.4-9.5,3.6
					c0.9,1.9,1.7,3.7,2.4,5.3c3.1-1.2,6-2.3,8.9-3.4C80.8,17.9,80.2,16.1,79.6,14.2L79.6,14.2z"/>
			</g>
		</g>
		<g>
			<g>
				<polygon class="st1" points="62.4,22.1 68.9,18.9 70.8,23.4 64.9,26.3 				"/>
			</g>
			<g>
				<path class="st0" d="M68.6,19.6l1,2.2l0.6,1.3L68.5,24l-3.4,1.7l-1.9-3.3l3-1.5L68.6,19.6 M69.1,18.3c-2.5,1.3-4.9,2.4-7.4,3.7
					c1.1,1.8,2,3.4,2.9,5.1c2.3-1.1,4.5-2.2,6.8-3.4C70.6,21.8,69.9,20.1,69.1,18.3L69.1,18.3z"/>
			</g>
		</g>
		<g>
			<g>
				<polygon class="st1" points="51.2,29.1 57.1,25.2 59.5,29.4 54,33 				"/>
			</g>
			<g>
				<path class="st0" d="M57,25.9l1.4,2.5l0.5,0.8l-2.6,1.7l-2.1,1.4l-1.4-1.9l-0.9-1.2l2.5-1.7L57,25.9 M57.3,24.5
					c-2.3,1.5-4.5,3-6.8,4.5c1.2,1.7,2.3,3.2,3.4,4.7c2.1-1.4,4.2-2.8,6.3-4.2C59.2,27.8,58.3,26.2,57.3,24.5L57.3,24.5z"/>
			</g>
		</g>
		<g>
			<g>
				<polygon class="st1" points="42.4,36.1 49.5,30.3 52.3,34.2 45.6,39.7 				"/>
			</g>
			<g>
				<path class="st0" d="M49.4,31.1l0.6,0.8l1.6,2.3l-3.4,2.8l-2.5,2l-2.6-2.9l5.3-4.2L49.4,31.1 M49.6,29.6
					c-2.7,2.2-5.3,4.3-7.9,6.4c1.4,1.5,2.6,2.9,3.9,4.4c2.5-2,4.9-4,7.4-6C51.9,32.8,50.7,31.3,49.6,29.6L49.6,29.6z"/>
			</g>
		</g>
		<g>
			<g>
				<polygon class="st1" points="33.6,44.5 40.7,37.4 43.9,40.9 37.1,47.6 				"/>
			</g>
			<g>
				<path class="st0" d="M40.7,38.2l0.3,0.3l2.2,2.5L40.1,44l-2.9,2.9l-2.8-2.4l3.5-3.5L40.7,38.2 M40.8,36.7
					c-2.7,2.6-5.2,5.2-7.9,7.8c1.7,1.5,3.1,2.7,4.3,3.8c2.5-2.5,4.9-4.9,7.4-7.3C43.4,39.6,42.1,38.2,40.8,36.7L40.8,36.7z"/>
			</g>
		</g>
		<g>
			<g>
				<polygon class="st1" points="26.6,53.3 32.3,46.1 35.9,49.3 30.5,56.1 				"/>
			</g>
			<g>
				<path class="st0" d="M32.4,46.9l1.2,1l1.7,1.5L33,52.2l-2.6,3.2l-2.5-1.8l-0.6-0.4L32.4,46.9 M32.2,45.4
					c-2.2,2.7-4.2,5.3-6.4,7.9c1.7,1.2,3.2,2.3,4.7,3.4c2-2.5,4-5,6-7.5C35.2,48,33.8,46.8,32.2,45.4L32.2,45.4z"/>
			</g>
		</g>
		<g>
			<g>
				<polygon class="st1" points="21.5,60.9 25.4,55 29.3,57.8 25.7,63.3 				"/>
			</g>
			<g>
				<path class="st0" d="M25.5,55.7l1.5,1.1l1.6,1.2l-3.1,4.7l-1.7-1l-1.6-0.9L25.5,55.7L25.5,55.7 M25.2,54.3
					c-1.5,2.3-3,4.6-4.5,6.9c1.8,1,3.4,1.9,5.1,2.9c1.4-2.2,2.8-4.2,4.2-6.3C28.3,56.5,26.9,55.4,25.2,54.3L25.2,54.3z"/>
			</g>
		</g>
		<g>
			<g>
				<polygon class="st1" points="15.3,72.7 18.4,66.3 22.6,68.6 19.7,74.6 				"/>
			</g>
			<g>
				<path class="st0" d="M18.6,67l2.5,1.4l0.8,0.5l-1.4,2.9L19.4,74l-2.2-1l-1.3-0.6l1.5-3L18.6,67 M18.2,65.6
					c-1.2,2.5-2.4,4.8-3.6,7.3c1.9,0.8,3.6,1.6,5.3,2.4c1.1-2.3,2.2-4.5,3.3-6.8C21.6,67.5,20,66.6,18.2,65.6L18.2,65.6z"/>
			</g>
		</g>
		<g>
			<g>
				<polygon class="st1" points="11.1,83.1 14.4,74.6 18.8,76.5 15.8,84.6 				"/>
			</g>
			<g>
				<path class="st0" d="M14.7,75.3l1.7,0.7l1.8,0.8L17.7,78L15.5,84l-3.7-1.1L14.7,75.3 M14.1,73.9c-1.2,3.2-2.4,6.3-3.6,9.5
					c2,0.6,3.8,1.2,5.6,1.7c1.1-3.1,2.2-6,3.4-9C17.7,75.5,16,74.7,14.1,73.9L14.1,73.9z"/>
			</g>
		</g>
		<g>
			<g>
				<polygon class="st1" points="8.2,94 10.5,85.1 15.1,86.6 12.9,95 				"/>
			</g>
			<g>
				<path class="st0" d="M10.8,85.8l0.8,0.3l2.9,0.9l-0.6,2.3l-1.3,5.1l-0.3-0.1l-3.5-0.7l1.7-6.5L10.8,85.8 M10.1,84.5
					c-0.9,3.4-1.7,6.6-2.5,9.9c2,0.4,3.8,0.8,5.7,1.2c0.8-3.2,1.6-6.2,2.4-9.3C13.9,85.7,12.1,85.1,10.1,84.5L10.1,84.5z"/>
			</g>
		</g>
		<g>
			<g>
				<polygon class="st1" points="6.4,105.1 7.8,96.1 12.5,97 11.2,105.6 				"/>
			</g>
			<g>
				<path class="st0" d="M8.2,96.7l2.9,0.6l0.8,0.2l-0.7,4.4l-0.5,3.2l-3.8-0.4l1.2-7.7L8.2,96.7 M7.4,95.5c-0.5,3.4-1,6.6-1.6,10.1
					c2.1,0.2,4,0.4,5.8,0.6c0.5-3.3,1-6.4,1.5-9.5C11.2,96.3,9.5,95.9,7.4,95.5L7.4,95.5z"/>
			</g>
		</g>
		<g>
			<g>
				<polygon class="st1" points="5.8,114.2 6.2,107.2 11,107.7 10.6,114.2 				"/>
			</g>
			<g>
				<path class="st0" d="M6.7,107.7L6.7,107.7l3.8,0.4l0,0.3l-0.3,5.4H6.3l0.3-5.7L6.7,107.7 M5.7,106.6c-0.2,2.8-0.3,5.4-0.5,8.1
					c2.1,0,3.9,0,5.8,0c0.1-2.5,0.3-4.9,0.4-7.5C9.6,107,7.8,106.8,5.7,106.6L5.7,106.6z"/>
			</g>
		</g>
		<g>
			<g>
				<polygon class="st1" points="5.8,120.4 10.7,120.4 11.1,127 6.3,127.6 				"/>
			</g>
			<g>
				<path class="st0" d="M10.2,120.9l0.2,3l0.2,2.6l-1.8,0.2l-2,0.2l-0.1-2l-0.3-4H10.2 M11.1,119.9c-2,0-3.8,0-5.9,0
					c0.2,2.8,0.4,5.4,0.6,8.2c2-0.2,3.9-0.4,5.8-0.7C11.5,124.9,11.3,122.4,11.1,119.9L11.1,119.9z"/>
			</g>
		</g>
		<g>
			<g>
				<polygon class="st1" points="6.5,129.6 11.3,129.1 12.7,137.6 8,138.7 				"/>
			</g>
			<g>
				<path class="st0" d="M10.9,129.6l1.2,7.6l-3.7,0.8l-0.1-0.7l-1.2-7.3l2.6-0.3L10.9,129.6 M11.7,128.5c-1.9,0.2-3.7,0.4-5.8,0.7
					c0.6,3.4,1.1,6.7,1.6,10.1c2.1-0.5,3.9-0.9,5.7-1.3C12.7,134.8,12.2,131.7,11.7,128.5L11.7,128.5z"/>
			</g>
		</g>
		<g>
			<g>
				<polygon class="st1" points="8.4,140.7 13.1,139.7 15.4,148 10.8,149.6 				"/>
			</g>
			<g>
				<path class="st0" d="M12.8,140.3l0.9,3.2l1.1,4.2l-1.2,0.4l-2.4,0.8l-0.9-3.3L9,141.1l2-0.4L12.8,140.3 M13.5,139.1
					c-1.9,0.4-3.7,0.8-5.7,1.2c0.9,3.3,1.8,6.6,2.7,9.9c2-0.7,3.8-1.3,5.5-1.9C15.1,145.2,14.3,142.2,13.5,139.1L13.5,139.1z"/>
			</g>
		</g>
		<g>
			<g>
				<polygon class="st1" points="11.4,151.6 16.1,150 19.2,158.1 14.8,160.1 				"/>
			</g>
			<g>
				<path class="st0" d="M15.8,150.7l2.6,6.8l0.2,0.4l-1.5,0.7l-2,0.9l-0.9-2.2l-2.1-5.4l0.1,0L15.8,150.7 M16.3,149.4
					c-1.9,0.6-3.7,1.2-5.6,1.9c1.3,3.3,2.5,6.4,3.7,9.5c1.9-0.8,3.6-1.6,5.3-2.4C18.7,155.4,17.5,152.5,16.3,149.4L16.3,149.4z"/>
			</g>
		</g>
		<g>
			<g>
				<polygon class="st1" points="15.6,162 20,160 23,165.9 18.8,168.4 				"/>
			</g>
			<g>
				<path class="st0" d="M19.8,160.7l2.6,5.1l-3.3,1.9l-2.7-5.4L19.8,160.7 M20.3,159.4c-1.8,0.8-3.5,1.6-5.3,2.4
					c1.2,2.5,2.4,4.8,3.7,7.3c1.8-1.1,3.4-2,5.1-2.9C22.5,163.8,21.4,161.6,20.3,159.4L20.3,159.4z"/>
			</g>
		</g>
		<g>
			<g>
				<polygon class="st1" points="21.9,173.7 26.1,171.2 29.8,176.7 25.9,179.6 				"/>
			</g>
			<g>
				<path class="st0" d="M26,171.9l1.9,2.9l1.2,1.8l-3.1,2.3l-1.1-1.7l-2.3-3.4l2.4-1.4L26,171.9 M26.3,170.5c-1.7,1-3.3,1.9-5,3
					c1.6,2.3,3,4.5,4.6,6.8c1.6-1.2,3.1-2.3,4.7-3.5C29,174.7,27.7,172.7,26.3,170.5L26.3,170.5z"/>
			</g>
		</g>
		<g>
			<g>
				<polygon class="st1" points="27.1,181.3 31,178.4 36.5,185.1 32.9,188.4 				"/>
			</g>
			<g>
				<path class="st0" d="M30.9,179.1l2.2,2.7l2.7,3.3l-2.1,1.9l-0.8,0.7l-3.7-4.5l-1.4-1.7l1.4-1L30.9,179.1 M31.1,177.8
					c-1.5,1.1-3,2.2-4.7,3.5c2.2,2.7,4.3,5.2,6.4,7.9c1.5-1.4,2.9-2.7,4.3-3.9C35.1,182.6,33.1,180.2,31.1,177.8L31.1,177.8z"/>
			</g>
		</g>
		<g>
			<g>
				<polygon class="st1" points="34.4,189.9 37.8,186.8 43.8,193 40.8,196.4 				"/>
			</g>
			<g>
				<path class="st0" d="M37.8,187.5l5.3,5.6l-2.4,2.6l-3.7-3.9l-1.9-1.9l0.8-0.7L37.8,187.5 M37.9,186.1c-1.4,1.2-2.7,2.5-4.1,3.8
					c2.4,2.5,4.7,4.9,7.1,7.3c1.4-1.6,2.7-3,3.7-4.1C42.2,190.7,40,188.4,37.9,186.1L37.9,186.1z"/>
			</g>
		</g>
		<g>
			<g>
				<polygon class="st1" points="42.4,197.8 45.6,194.2 52.3,199.6 49.5,203.5 				"/>
			</g>
			<g>
				<path class="st0" d="M45.7,194.9l6,4.8l-2.2,3.1l-6.3-5.1L45.7,194.9 M45.5,193.5c-1.3,1.4-2.5,2.8-3.9,4.3
					c2.7,2.2,5.3,4.3,7.9,6.4c1.2-1.7,2.3-3.2,3.4-4.7C50.5,197.5,48,195.5,45.5,193.5L45.5,193.5z"/>
			</g>
		</g>
		<g>
			<g>
				<polygon class="st1" points="51.2,204.7 54.1,200.8 59.6,204.5 57.2,208.7 				"/>
			</g>
			<g>
				<path class="st0" d="M54.2,201.5l4.7,3.1L57,208l-5.1-3.3l1-1.4L54.2,201.5 M53.9,200.1c-1.1,1.6-2.2,3.1-3.4,4.7
					c2.3,1.5,4.5,2.9,6.8,4.5c1-1.8,1.9-3.4,2.9-5.1C58.1,202.9,56.1,201.5,53.9,200.1L53.9,200.1z"/>
			</g>
		</g>
		<g>
			<g>
				<polygon class="st1" points="62.5,211.7 64.9,207.5 70.8,210.5 68.9,214.9 				"/>
			</g>
			<g>
				<path class="st0" d="M65.1,208.2l1.5,0.7l3.6,1.8l-1.4,3.2l-0.1,0.3l-5.5-2.7l1.4-2.4L65.1,208.2 M64.7,206.9
					c-1,1.7-1.9,3.3-2.9,5.1c2.5,1.3,4.9,2.4,7.3,3.7c0.8-1.9,1.6-3.6,2.3-5.4C69.1,209.1,67,208,64.7,206.9L64.7,206.9z"/>
			</g>
		</g>
		<g>
			<g>
				<polygon class="st1" points="70.8,215.7 72.8,211.3 80.8,214.4 79.3,219 				"/>
			</g>
			<g>
				<path class="st0" d="M73,212l3,1.1l4.2,1.6l-1.2,3.7l0,0l-0.8-0.3l-6.7-2.6l0.8-1.7L73,212 M72.5,210.7
					c-0.8,1.8-1.5,3.5-2.4,5.3c3.2,1.2,6.3,2.4,9.5,3.7c0.6-2,1.2-3.7,1.8-5.6C78.4,212.9,75.5,211.8,72.5,210.7L72.5,210.7z"/>
			</g>
		</g>
		<g>
			<g>
				<polygon class="st1" points="81.4,219.7 82.8,215.1 91.2,217.2 90.2,222 				"/>
			</g>
			<g>
				<path class="st0" d="M83.2,215.7l2.8,0.7l4.6,1.2l-0.8,3.8l-7.8-2.1l0.1-0.3L83.2,215.7 M82.5,214.5c-0.6,1.8-1.2,3.6-1.8,5.5
					c3.3,0.9,6.5,1.7,9.8,2.6c0.4-2.1,0.8-3.9,1.2-5.7C88.6,216.1,85.6,215.3,82.5,214.5L82.5,214.5z"/>
			</g>
		</g>
		<g>
			<g>
				<polygon class="st1" points="92.3,222.4 93.2,217.7 101.8,219 101.3,223.8 				"/>
			</g>
			<g>
				<path class="st0" d="M93.6,218.3l7.6,1.2l-0.2,2l-0.2,1.8l-8-1.2l0.5-2.4L93.6,218.3 M92.8,217.1c-0.4,1.9-0.8,3.7-1.2,5.7
					c3.4,0.5,6.7,1,10.1,1.5c0.2-2.1,0.4-3.9,0.6-5.8C99.1,218.1,96,217.6,92.8,217.1L92.8,217.1z"/>
			</g>
		</g>
		<g>
			<g>
				<polygon class="st1" points="103.4,224 103.9,219.2 110.4,219.6 110.4,224.4 				"/>
			</g>
			<g>
				<path class="st0" d="M104.3,219.7l5.6,0.3v3.9l-0.6,0l-5.3-0.3l0.2-1.9L104.3,219.7 M103.4,218.7c-0.2,1.9-0.4,3.8-0.6,5.8
					c2.8,0.2,5.4,0.3,8,0.5c0-2.1,0-4,0-5.9C108.4,219,106,218.8,103.4,218.7L103.4,218.7z"/>
			</g>
		</g>
		<g>
			<g>
				<polygon class="st1" points="116.7,219.6 123.2,219.2 123.7,224 116.7,224.4 				"/>
			</g>
			<g>
				<path class="st0" d="M122.8,219.7l0.4,3.8l-3.1,0.2l-2.9,0.2V220L122.8,219.7 M123.7,218.6c-2.6,0.2-5,0.3-7.5,0.5
					c0,2,0,3.8,0,5.8c2.7-0.2,5.4-0.3,8.1-0.5C124.1,222.4,123.9,220.6,123.7,218.6L123.7,218.6z"/>
			</g>
		</g>
		<g>
			<g>
				<polygon class="st1" points="125.3,219 133.8,217.6 134.9,222.3 125.8,223.8 				"/>
			</g>
			<g>
				<path class="st0" d="M133.4,218.2l0.4,1.7l0.4,2l-4.8,0.8l-3.2,0.5l0-0.2l-0.4-3.6l2.7-0.4L133.4,218.2 M134.2,217
					c-3.3,0.5-6.3,1-9.5,1.5c0.2,1.9,0.4,3.7,0.6,5.8c3.4-0.5,6.7-1.1,10.1-1.6C135,220.7,134.6,218.8,134.2,217L134.2,217z"/>
			</g>
		</g>
		<g>
			<g>
				<polygon class="st1" points="135.9,217.2 144.2,214.9 145.8,219.5 136.9,221.9 				"/>
			</g>
			<g>
				<path class="st0" d="M143.9,215.5l0.2,0.6l1,3.1l-7.8,2.1l-0.3-1.4l-0.5-2.4L143.9,215.5 M144.6,214.3c-3.1,0.9-6.2,1.7-9.3,2.5
					c0.4,1.9,0.8,3.7,1.3,5.7c3.3-0.9,6.5-1.7,9.8-2.7C145.7,217.8,145.2,216,144.6,214.3L144.6,214.3z"/>
			</g>
		</g>
		<g>
			<g>
				<polygon class="st1" points="146.3,214.3 154.3,211.2 156.3,215.6 147.8,218.8 				"/>
			</g>
			<g>
				<path class="st0" d="M154.1,211.8l1.6,3.5l-6.4,2.5l-1.1,0.4l-1.2-3.6l5.4-2.1L154.1,211.8 M154.6,210.5c-3,1.2-5.9,2.3-9,3.4
					c0.6,1.8,1.2,3.6,1.8,5.5c3.2-1.2,6.3-2.4,9.5-3.7C156.1,213.9,155.4,212.2,154.6,210.5L154.6,210.5z"/>
			</g>
		</g>
		<g>
			<g>
				<polygon class="st1" points="156.2,210.3 162.2,207.3 164.6,211.5 158.2,214.7 				"/>
			</g>
			<g>
				<path class="st0" d="M162,208l1.2,2l0.7,1.3l-5.4,2.7l-1.6-3.5L162,208 M162.4,206.6c-2.3,1.1-4.5,2.2-6.8,3.4
					c0.8,1.8,1.5,3.4,2.4,5.3c2.5-1.3,4.9-2.5,7.3-3.7C164.2,209.9,163.3,208.3,162.4,206.6L162.4,206.6z"/>
			</g>
		</g>
		<g>
			<g>
				<polygon class="st1" points="167.5,204.2 173,200.5 175.8,204.4 169.9,208.4 				"/>
			</g>
			<g>
				<path class="st0" d="M172.8,201.2l2.3,3.1l-1,0.7l-4,2.7l-0.8-1.4l-1.1-1.9l3-2L172.8,201.2 M173.1,199.9
					c-2.1,1.4-4.2,2.8-6.3,4.2c1,1.7,1.9,3.3,2.9,5c2.3-1.5,4.5-3,6.8-4.6C175.3,202.9,174.2,201.4,173.1,199.9L173.1,199.9z"/>
			</g>
		</g>
		<g>
			<g>
				<polygon class="st1" points="174.7,199.3 181.4,193.9 184.6,197.5 177.6,203.2 				"/>
			</g>
			<g>
				<path class="st0" d="M181.3,194.6l2.6,2.9l-5.8,4.7l-0.5,0.4l-1.4-1.9l-0.9-1.2l3.1-2.6L181.3,194.6 M181.4,193.2
					c-2.6,2.1-5,4.1-7.4,6.1c1.1,1.6,2.3,3.1,3.5,4.7c2.7-2.2,5.3-4.3,7.9-6.4C184,196,182.7,194.6,181.4,193.2L181.4,193.2z"/>
			</g>
		</g>
		<g>
			<g>
				<polygon class="st1" points="183,192.5 189.2,186.5 192.6,189.5 186,195.8 				"/>
			</g>
			<g>
				<path class="st0" d="M189.2,187.2l2.6,2.3l-2.9,2.7l-3,2.8l-0.1-0.1l-2.2-2.4l1.8-1.8L189.2,187.2 M189.2,185.8
					c-2.3,2.3-4.6,4.4-6.9,6.7c1.2,1.4,2.5,2.8,3.6,4c2.5-2.4,4.9-4.6,7.4-7C191.8,188.2,190.5,186.9,189.2,185.8L189.2,185.8z"/>
			</g>
		</g>
		<g>
			<g>
				<polygon class="st1" points="190.4,184.8 195.9,178.1 199.8,180.9 194.1,188 				"/>
			</g>
			<g>
				<path class="st0" d="M196,178.8l1.5,1.1l1.6,1.1l-5.1,6.3l-1.5-1.3l-1.4-1.2l0.4-0.4L196,178.8 M195.8,177.4c-2.1,2.5-4,5-6,7.4
					c1.4,1.3,2.8,2.5,4.3,3.9c2.2-2.7,4.3-5.3,6.4-7.9C198.8,179.6,197.3,178.5,195.8,177.4L195.8,177.4z"/>
			</g>
		</g>
		<g>
			<g>
				<polygon class="st1" points="197.1,176.4 200.8,170.8 204.9,173.3 201,179.2 				"/>
			</g>
			<g>
				<path class="st0" d="M200.9,171.5l3.3,1.9l-2.5,3.7l-0.9,1.4l-0.3-0.2l-2.8-2l1.2-1.8L200.9,171.5 M200.6,170.2
					c-1.4,2.1-2.8,4.2-4.2,6.3c1.6,1.1,3.1,2.2,4.7,3.4c1.5-2.3,3-4.5,4.5-6.8C203.9,172.1,202.3,171.1,200.6,170.2L200.6,170.2z"/>
			</g>
		</g>
		<g>
			<g>
				<polygon class="st1" points="203.8,165.5 206.8,159.6 211.2,161.6 208,167.9 				"/>
			</g>
			<g>
				<path class="st0" d="M207,160.2l2.7,1.2l0.8,0.4l-2.4,4.8l-0.3,0.6l-3.3-1.9l0.5-1L207,160.2 M206.6,158.9
					c-1.1,2.3-2.3,4.5-3.4,6.8c1.7,1,3.3,1.9,5.1,2.9c1.3-2.5,2.4-4.9,3.6-7.3C210,160.5,208.3,159.7,206.6,158.9L206.6,158.9z"/>
			</g>
		</g>
		<g>
			<g>
				<polygon class="st1" points="207.7,157.7 210.8,149.6 215.4,151.1 212.1,159.6 				"/>
			</g>
			<g>
				<path class="st0" d="M211.1,150.2l0.6,0.2l3,1l-2.7,7l-0.2,0.5l-3.5-1.5l1.3-3.3L211.1,150.2 M210.5,149c-1.2,3-2.3,6-3.4,9
					c1.8,0.8,3.5,1.5,5.3,2.4c1.2-3.2,2.4-6.3,3.7-9.5C214,150.1,212.3,149.6,210.5,149L210.5,149z"/>
			</g>
		</g>
		<g>
			<g>
				<polygon class="st1" points="211.4,147.6 213.6,139.3 218.3,140.2 216,149.1 				"/>
			</g>
			<g>
				<path class="st0" d="M214,139.8l3.8,0.8l-1.1,4.3l-0.9,3.5l-3.7-1.2l1.9-7.3L214,139.8 M213.2,138.7c-0.8,3.1-1.6,6.1-2.4,9.3
					c1.8,0.6,3.6,1.1,5.6,1.8c0.9-3.3,1.7-6.5,2.6-9.8C216.9,139.4,215.1,139.1,213.2,138.7L213.2,138.7z"/>
			</g>
		</g>
		<g>
			<g>
				<polygon class="st1" points="214.1,137.2 215.4,128.6 220.2,129.2 218.8,138.2 				"/>
			</g>
			<g>
				<path class="st0" d="M215.8,129.2l1.4,0.1l2.4,0.3l-1.2,8l-1.9-0.4l-1.9-0.4l0.7-4.2L215.8,129.2 M215,128.1
					c-0.5,3.2-1,6.3-1.5,9.5c1.9,0.4,3.7,0.8,5.7,1.2c0.5-3.4,1-6.7,1.6-10.1C218.7,128.5,216.9,128.3,215,128.1L215,128.1z"/>
			</g>
		</g>
		<g>
			<g>
				<polygon class="st1" points="215.6,126.6 216,120 220.8,120 220.4,127.1 				"/>
			</g>
			<g>
				<path class="st0" d="M220.3,120.5l-0.3,6l-2.4-0.2l-1.4-0.1l0.3-5.6H220.3 M221.3,119.5c-2,0-3.9,0-5.8,0
					c-0.1,2.5-0.3,5-0.4,7.5c1.9,0.2,3.8,0.4,5.8,0.6C221,124.8,221.2,122.2,221.3,119.5L221.3,119.5z"/>
			</g>
		</g>
		<g>
			<g>
				<polygon class="st1" points="216,113.8 215.6,107.2 220.4,106.7 220.8,113.8 				"/>
			</g>
			<g>
				<path class="st0" d="M219.9,107.3l0.1,2.3l0.2,3.7h-3.8l-0.2-3.4l-0.1-2.2l1.1-0.1L219.9,107.3 M220.9,106.2
					c-2,0.2-3.8,0.4-5.8,0.6c0.2,2.6,0.3,5.1,0.5,7.5c2,0,3.9,0,5.9,0C221.2,111.5,221,108.9,220.9,106.2L220.9,106.2z"/>
			</g>
		</g>
	</g>
</g>
</svg>
