<?xml version="1.0" encoding="utf-8"?>
<!-- Generator: Adobe Illustrator 28.1.0, SVG Export Plug-In . SVG Version: 6.00 Build 0)  -->
<svg version="1.1" id="Calque_1" xmlns="http://www.w3.org/2000/svg" xmlns:xlink="http://www.w3.org/1999/xlink" x="0px" y="0px"
	 viewBox="0 0 226.6 233.8" style="enable-background:new 0 0 226.6 233.8;" xml:space="preserve">
<style type="text/css">
	.st0{fill:#F5EDE0;}
	.st1{fill:#113B40;}
</style>
<circle class="st0" cx="113.3" cy="116.9" r="113.3"/>
<g>
	<path class="st1" d="M113.8,4.8C53.4,4.4,1.3,53,1.2,117.1c0,59.6,47.1,109.5,107.9,111.8c63.5,2.3,115.8-48.3,116.2-110.9
		C226.3,58,177.9,5.2,113.8,4.8z M220.8,105.1c-2,0.2-3.9,0.4-5.8,0.6c-0.5-3.2-1-6.3-1.5-9.5c1.9-0.4,3.7-0.8,5.7-1.2
		C219.7,98.4,220.3,101.7,220.8,105.1z M19.7,116.9c0-51.6,42-93.6,93.6-93.6c51.6,0,93.6,42,93.6,93.6s-42,93.6-93.6,93.6
		C61.7,210.5,19.7,168.5,19.7,116.9z M219,93.9c-2,0.4-3.8,0.8-5.7,1.2c-0.9-3.1-1.7-6.1-2.5-9.3c1.8-0.6,3.6-1.2,5.6-1.8
		C217.3,87.4,218.1,90.6,219,93.9z M216,83c-2,0.6-3.8,1.2-5.6,1.8c-1.2-3.1-2.2-6-3.4-8.9c1.7-0.8,3.4-1.5,5.3-2.4
		C213.6,76.6,214.7,79.8,216,83z M211.9,72.5c-1.9,0.8-3.6,1.6-5.4,2.4c-1.2-2.3-2.3-4.5-3.4-6.8c1.7-1,3.3-1.9,5.1-2.9
		C209.4,67.6,210.6,70,211.9,72.5z M205.7,60.7c-1.8,1-3.4,1.9-5.1,2.9c-1.4-2.1-2.8-4.2-4.2-6.3c1.6-1.1,3.1-2.2,4.8-3.4
		C202.7,56.2,204.2,58.4,205.7,60.7z M200.5,53c-1.6,1.1-3.1,2.2-4.7,3.4c-2.1-2.5-4-4.9-6-7.4c1.3-1.2,2.7-2.5,4.3-3.9
		C196.3,47.8,198.4,50.4,200.5,53z M193.2,44.4c-1.4,1.2-2.7,2.4-4,3.6c-2.3-2.3-4.5-4.5-6.8-6.8c1.1-1.2,2.3-2.6,3.7-4.1
		C188.5,39.5,190.8,41.9,193.2,44.4z M185.3,36.3c-1.4,1.5-2.6,2.9-3.9,4.3c-2.4-2-4.9-3.9-7.4-6c1.1-1.5,2.1-3,3.4-4.7
		C180,32,182.6,34.1,185.3,36.3z M169.7,24.7c2.3,1.5,4.5,3,6.8,4.5c-1.2,1.6-2.2,3.1-3.4,4.7c-2.2-1.4-4.2-2.8-6.3-4.2
		C167.8,28.1,168.7,26.5,169.7,24.7z M165.2,22.2c-1,1.7-1.9,3.3-2.9,5c-2.3-1.2-4.5-2.2-6.8-3.4c0.8-1.8,1.6-3.5,2.4-5.3
		C160.3,19.8,162.7,20.9,165.2,22.2z M156.9,17.9c-0.8,1.8-1.6,3.6-2.4,5.3c-3-1.1-5.9-2.2-8.9-3.4c0.6-1.8,1.2-3.6,1.8-5.5
		C150.6,15.5,153.6,16.6,156.9,17.9z M146.4,13.9c-0.6,2-1.2,3.7-1.8,5.6c-3.2-0.8-6.2-1.7-9.3-2.5c0.4-1.8,0.9-3.7,1.3-5.7
		C139.9,12.2,143.1,13,146.4,13.9z M125.3,9.5c3.4,0.6,6.7,1.1,10.1,1.6c-0.4,2-0.8,3.8-1.2,5.7c-3.2-0.5-6.3-1-9.5-1.5
		C124.9,13.4,125.1,11.6,125.3,9.5z M116.2,8.9c2.7,0.1,5.3,0.3,8.1,0.5c-0.2,2-0.4,3.8-0.6,5.8c-2.6-0.1-5-0.3-7.6-0.4
		C116.1,12.8,116.1,10.9,116.2,8.9z M110.9,8.8c0,2.1,0,3.9,0,5.9c-2.5,0.1-4.9,0.3-7.5,0.4c-0.2-1.9-0.4-3.7-0.6-5.8
		C105.5,9.1,108.1,9,110.9,8.8z M101.7,9.4c0.2,2.1,0.4,3.9,0.6,5.8c-3.2,0.5-6.3,1-9.5,1.5C92.4,14.9,92,13,91.6,11
		C95,10.4,98.2,9.9,101.7,9.4z M90.5,11.2c0.4,2,0.8,3.8,1.2,5.7c-3.1,0.8-6.1,1.6-9.3,2.4c-0.6-1.7-1.1-3.5-1.8-5.5
		C83.9,13,87.1,12.1,90.5,11.2z M79.6,14.2c0.6,1.9,1.2,3.6,1.8,5.5c-2.9,1.1-5.8,2.2-8.9,3.4c-0.7-1.6-1.5-3.4-2.4-5.3
		C73.3,16.6,76.4,15.4,79.6,14.2z M69.1,18.3c0.8,1.8,1.5,3.5,2.3,5.3c-2.3,1.2-4.4,2.2-6.8,3.5c-0.9-1.7-1.8-3.3-2.9-5.1
		C64.2,20.7,66.6,19.6,69.1,18.3z M57.3,24.5c1,1.7,1.9,3.3,2.9,5c-2.1,1.4-4.2,2.8-6.3,4.2c-1.1-1.5-2.2-3-3.4-4.7
		C52.8,27.5,55,26,57.3,24.5z M49.6,29.6c1.2,1.6,2.3,3.2,3.4,4.7c-2.5,2.1-5,4-7.4,6.1c-1.3-1.5-2.5-2.9-3.9-4.4
		C44.3,33.9,46.9,31.8,49.6,29.6z M40.8,36.7c1.4,1.6,2.6,3,3.8,4.3c-2.5,2.4-4.9,4.8-7.4,7.3c-1.2-1.1-2.6-2.3-4.3-3.8
		C35.6,41.9,38.1,39.3,40.8,36.7z M32.2,45.4c1.6,1.4,3,2.6,4.4,3.9c-2,2.5-4,4.9-6.1,7.4c-1.5-1.1-3-2.2-4.7-3.4
		C28,50.7,30,48.1,32.2,45.4z M25.3,54.3c1.6,1.2,3.1,2.2,4.7,3.4c-1.4,2.1-2.8,4.1-4.2,6.3c-1.6-1-3.3-1.9-5-2.8
		C22.3,58.9,23.8,56.6,25.3,54.3z M18.1,65.6c1.8,1,3.4,1.9,5.1,2.9c-1.1,2.3-2.2,4.5-3.3,6.8c-1.7-0.8-3.4-1.6-5.3-2.4
		C15.8,70.4,17,68,18.1,65.6z M14.1,73.9c1.9,0.8,3.6,1.6,5.4,2.2c-1.2,3-2.3,5.9-3.4,9c-1.8-0.5-3.6-1.1-5.6-1.7
		C11.7,80.2,12.9,77.1,14.1,73.9z M10.1,84.5c2,0.6,3.8,1.2,5.6,1.8c-0.8,3.1-1.6,6.1-2.4,9.3c-1.9-0.4-3.7-0.8-5.7-1.2
		C8.4,91.1,9.2,87.9,10.1,84.5z M7.4,95.5c2.1,0.4,3.8,0.8,5.7,1.2c-0.5,3.1-1,6.2-1.5,9.5c-1.8-0.2-3.7-0.4-5.8-0.6
		C6.4,102.1,6.9,98.9,7.4,95.5z M5.8,106.6c2,0.2,3.8,0.4,5.8,0.6c-0.2,2.6-0.3,5-0.5,7.5c-1.9,0-3.7,0-5.8,0
		C5.5,112,5.6,109.4,5.8,106.6z M11.2,119.9c0.2,2.5,0.3,4.9,0.5,7.5c-1.9,0.3-3.8,0.5-5.8,0.7c-0.2-2.8-0.4-5.4-0.6-8.2
		C7.3,119.9,9.1,119.9,11.2,119.9z M5.9,129.2c2.1-0.2,3.9-0.4,5.8-0.7c0.5,3.2,1,6.2,1.5,9.5c-1.8,0.4-3.6,0.8-5.7,1.3
		C7,135.9,6.5,132.6,5.9,129.2z M7.8,140.3c2-0.4,3.8-0.8,5.7-1.2c0.8,3,1.6,6,2.5,9.2c-1.7,0.6-3.5,1.2-5.5,1.9
		C9.6,146.9,8.7,143.6,7.8,140.3z M10.7,151.3c1.9-0.7,3.7-1.3,5.6-1.9c1.2,3.1,2.4,6,3.4,9c-1.7,0.8-3.4,1.6-5.3,2.4
		C13.2,157.7,12,154.6,10.7,151.3z M15,161.8c1.8-0.8,3.5-1.6,5.3-2.4c1.1,2.3,2.2,4.5,3.4,6.8c-1.7,0.9-3.3,1.8-5.1,2.9
		C17.4,166.6,16.2,164.2,15,161.8z M21.2,173.5c1.8-1,3.4-2,5.1-3c1.4,2.1,2.8,4.2,4.2,6.3c-1.6,1.2-3.1,2.3-4.7,3.5
		C24.2,178,22.8,175.8,21.2,173.5z M26.4,181.2c1.7-1.2,3.2-2.3,4.6-3.4c2,2.4,4,4.9,6.1,7.4c-1.4,1.2-2.8,2.5-4.3,3.9
		C30.7,186.4,28.6,183.9,26.4,181.2z M33.7,189.8c1.4-1.3,2.8-2.5,4.2-3.8c2.2,2.3,4.3,4.6,6.6,7c-1,1.1-2.3,2.5-3.7,4.1
		C38.4,194.7,36.1,192.3,33.7,189.8z M41.7,197.8c1.4-1.5,2.6-2.9,3.8-4.3c2.5,2,5,4,7.5,6c-1.1,1.5-2.2,3-3.4,4.7
		C47,202.1,44.4,200,41.7,197.8z M57.3,209.4c-2.3-1.6-4.5-3-6.8-4.6c1.2-1.6,2.3-3.1,3.4-4.7c2.1,1.4,4.2,2.8,6.3,4.2
		C59.2,206,58.3,207.6,57.3,209.4z M61.8,211.9c1-1.8,1.9-3.4,2.8-5.1c2.3,1.2,4.5,2.2,6.8,3.4c-0.7,1.8-1.5,3.5-2.3,5.4
		C66.7,214.3,64.3,213.2,61.8,211.9z M70.1,216c0.9-1.8,1.6-3.5,2.4-5.3c3,1.1,5.9,2.2,9,3.4c-0.7,1.9-1.2,3.6-1.9,5.6
		C76.4,218.4,73.3,217.2,70.1,216z M80.7,220c0.6-1.9,1.2-3.7,1.8-5.5c3.1,0.8,6.1,1.6,9.3,2.4c-0.4,1.8-0.8,3.6-1.2,5.7
		C87.2,221.7,84,220.9,80.7,220z M101.8,224.3c-3.4-0.5-6.7-1-10.1-1.5c0.4-2,0.8-3.8,1.2-5.7c3.2,0.5,6.2,1,9.5,1.5
		C102.2,220.5,101.9,222.3,101.8,224.3z M110.9,225c-2.6-0.2-5.2-0.3-8-0.5c0.2-2.1,0.3-3.9,0.5-5.8c2.6,0.1,5,0.3,7.5,0.4
		C110.9,221,110.9,222.9,110.9,225z M116.2,225c0-2,0-3.9,0-5.8c2.5-0.2,4.9-0.3,7.5-0.5c0.2,1.9,0.4,3.8,0.6,5.8
		C121.6,224.7,118.9,224.8,116.2,225z M125.4,224.3c-0.2-2.1-0.4-3.9-0.6-5.8c3.2-0.5,6.2-1,9.5-1.5c0.3,1.8,0.7,3.6,1.2,5.7
		C132.1,223.3,128.8,223.8,125.4,224.3z M136.6,222.4c-0.5-2-0.9-3.8-1.3-5.7c3.1-0.8,6.2-1.6,9.3-2.5c0.6,1.8,1.1,3.6,1.8,5.6
		C143,220.7,139.9,221.6,136.6,222.4z M147.4,219.4c-0.6-1.9-1.2-3.7-1.8-5.5c3.1-1.1,6-2.2,9-3.4c0.8,1.7,1.5,3.4,2.3,5.2
		C153.7,217,150.6,218.2,147.4,219.4z M158,215.4c-0.9-1.9-1.6-3.6-2.4-5.3c2.3-1.2,4.5-2.3,6.8-3.4c0.9,1.6,1.9,3.2,2.9,5
		C162.9,212.9,160.5,214.1,158,215.4z M169.7,209.1c-1-1.7-1.9-3.3-2.9-5c2.1-1.4,4.1-2.8,6.3-4.3c1.1,1.5,2.2,3,3.4,4.7
		C174.2,206.1,172,207.6,169.7,209.1z M177.5,204c-1.2-1.6-2.4-3.1-3.5-4.7c2.4-2,4.8-4,7.4-6.1c1.3,1.4,2.6,2.8,4,4.4
		C182.8,199.7,180.2,201.8,177.5,204z M185.9,196.5c-1.1-1.2-2.4-2.6-3.6-4c2.3-2.3,4.6-4.4,6.9-6.7c1.3,1.1,2.6,2.4,4.1,3.7
		C190.8,191.9,188.4,194.1,185.9,196.5z M194.1,188.8c-1.6-1.5-2.9-2.7-4.3-3.9c2-2.4,3.9-4.9,6-7.4c1.5,1.1,3,2.2,4.7,3.4
		C198.4,183.5,196.3,186.1,194.1,188.8z M201.1,179.9c-1.6-1.2-3.1-2.3-4.8-3.4c1.4-2.1,2.8-4.2,4.2-6.3c1.7,0.9,3.3,1.9,5.1,2.9
		C204.1,175.4,202.6,177.6,201.1,179.9z M208.3,168.6c-1.8-1-3.4-1.9-5.1-2.9c1.1-2.3,2.3-4.5,3.4-6.8c1.7,0.8,3.4,1.6,5.3,2.4
		C210.7,163.7,209.6,166.1,208.3,168.6z M212.4,160.4c-1.8-0.9-3.5-1.6-5.3-2.4c1.1-3,2.2-6,3.4-9c1.8,0.6,3.5,1.1,5.6,1.9
		C214.8,154.1,213.6,157.2,212.4,160.4z M216.4,149.8c-2-0.7-3.8-1.2-5.6-1.8c0.8-3.2,1.6-6.2,2.5-9.2c1.8,0.4,3.7,0.8,5.7,1.2
		C218.1,143.3,217.3,146.5,216.4,149.8z M219.2,138.8c-2-0.4-3.8-0.8-5.7-1.2c0.5-3.2,1-6.3,1.5-9.5c1.9,0.2,3.7,0.4,5.8,0.6
		C220.2,132.1,219.7,135.4,219.2,138.8z M220.9,127.6c-2-0.2-3.9-0.4-5.7-0.6c0.1-2.5,0.3-5,0.4-7.5c1.9,0,3.8,0,5.8,0
		C221.2,122.2,221.1,124.8,220.9,127.6z M215.6,114.3c-0.2-2.4-0.3-4.9-0.5-7.5c1.9-0.2,3.8-0.4,5.9-0.6c0.2,2.8,0.3,5.4,0.5,8.1
		C219.5,114.3,217.6,114.3,215.6,114.3z"/>
	<path class="st1" d="M56.6,48.4c0.7,0.2,1.4,0.2,2,0.5c2.8,1.7,5.6,3.5,8.4,5.4c0.4,0.2,0.7,0.7,0.8,1.1c0.9,3.5,1.6,7,2.4,10.5
		c0.1,0.4,0.2,1,0,1.2c-0.6,0.8,0,1,0.4,1.5c1.1-0.9,2.2-1.6,3.3-2.4c0-0.2,0-0.3,0-0.5c-0.5-0.1-1.1-0.3-1.6-0.4
		c-0.1,0.1-0.2,0.2-0.3,0.3c-0.9-3.2-1.8-6.4-2.7-9.6c0.2-0.1,0.3-0.1,0.4-0.2c2.7,2,5.4,3.9,8.1,5.9c-0.5,0.5-0.7,0.8-1,1.1
		c0.2,0.2,0.3,0.3,0.4,0.5s0.3,0.3,0.2,0.2c3.4-1.8,6.6-3.5,9.9-5.3c0-0.1,0-0.3-0.1-0.4c-0.1-0.2-0.2-0.3-0.3-0.5
		c-1.3,0.1-1.3,0.2-1.9-1c-3-6-6-12.1-9-18.1c-0.4-0.8-0.6-1.6,0.6-2c-0.3-0.4-0.5-0.7-0.7-1.1c-1.7,0.9-3.2,1.6-4.8,2.4
		c0.2,0.4,0.4,0.7,0.6,1.1c1.3-0.7,1.6,0.3,2,1.1c1.6,3.2,3.3,6.4,4.9,9.7c1.3,2.8,2.6,5.5,3.9,8.3c0.2,0.6,0.6,1.4-0.4,1.7
		c-0.8,0.3-1.6,0.5-2.5-0.1c-3.2-2.2-6.5-4.3-9.7-6.4c-0.3-0.2-0.6-0.8-0.7-1.2c-0.7-2.9-1.5-5.9-2.1-8.9c-0.1-0.7,0.1-1.5,0.2-2.2
		c0.2,0,0.3,0,0.4,0c-0.2-0.3-0.4-0.6-0.7-0.9c-1.2,0.9-2.4,1.8-3.7,2.7c0.3,0.3,0.5,0.6,0.7,0.9c0-0.1,0.1-0.2,0.1-0.3
		c0.5,0.1,1.3,0.1,1.4,0.4c0.9,2.7,1.7,5.3,2.6,8c-0.2,0-0.3,0.1-0.4,0.2c-2.1-1.6-4.3-3.2-6.4-4.8c-0.8-0.5-0.8-1.1,0-1.6
		c0.1,0,0.1-0.1,0.1-0.2c-0.2-0.2-0.4-0.5-0.7-0.9c-1.6,1.1-3.2,2.2-5.1,3.5C56,47.9,56.2,48.3,56.6,48.4z"/>
	<path class="st1" d="M96,31.7c1.7,2.8,3.3,5.6,4.9,8.5c0.2,0.4,0.3,1,0.2,1.4c-1.3,4-1.2,8.3-3.8,11.9c-0.1,0.1-0.1,0.1-0.1,0.2
		c0.1,0.3,0.2,0.6,0.3,1c1.3-0.2,2.6-0.4,4.2-0.6c-0.3-0.5-0.5-1.1-0.7-1.1c-1.1,0-0.9-0.8-0.8-1.4c0.4-2.2,0.9-4.3,1.3-6.4
		c0.1-0.8,0.3-1.5,0.5-2.3c1.4,2.2,2.7,4.3,3.7,6.6c0.4,0.8,2.1,2-0.1,2.8c0,0,0,0.1-0.1,0.2c0,0.3,0.1,0.6,0.1,0.6
		c3.8,0,7.5,0,11.3,0c-0.2-0.5-0.2-1.2-0.4-1.2c-1.1-0.3-0.9-1.1-0.9-1.9c0.1-6.5,0.3-13.1,0.4-19.6c0.1-0.8-0.2-1.8,1.1-2
		c0.2,0,0.2-0.7,0.4-1.3c-1.7,0-3.3,0-4.8,0c-0.2,0.1-0.6,0.3-0.6,0.5s0.1,0.7,0.3,0.7c1,0.2,0.9,0.9,0.9,1.5c0,4.7,0,9.4-0.1,14.1
		c0,2.2-0.1,4.3-0.2,6.5c0,0.7-0.1,1.4-1,1.2c-0.9-0.1-1.7-0.3-2.2-1.2c-1.9-3.4-3.9-6.7-5.8-10.1c-0.1-0.2-0.3-0.6-0.2-0.8
		c0.4-2,0.7-4.1,1.4-6c0.6-1.8,0.1-4.1,2.3-5.3c0,0,0-0.1,0.1-0.2c-0.1-0.2-0.1-0.5-0.2-0.9c-1.5,0.2-3,0.4-4.5,0.6
		c0,0.4,0.1,0.8,0.1,1.1c0.1-0.1,0.2-0.1,0.3-0.2c0.4,0.4,1,0.8,1,1.2c-0.4,2.8-0.9,5.5-1.3,8.2c-0.1,0-0.3,0.1-0.4,0.2
		c-1.2-2.6-2.4-5.1-3.6-7.7c-0.1-0.2,0.1-0.8,0.3-0.8c1-0.1,0.7-0.7,0.5-1.4c-1.7,0.2-3.4,0.4-5.1,0.7c-0.3,0.1-0.6,0.4-0.6,0.6
		s0.2,0.5,0.4,0.7C95,30.8,95.7,31.1,96,31.7z"/>
	<path class="st1" d="M35.6,76.4c3.3,0.5,6.5,1,9.8,1.6c0.6,0.1,1.3,0.5,1.7,1c1.4,1.6,2.6,3.3,3.8,5c1.1,1.6,2.9,2.9,3.1,5.3
		c0.2,0.1,0.5,0.2,0.9,0.4c0.7-1.2,1.4-2.3,2.1-3.5c-0.4-0.2-0.7-0.4-1-0.6c-0.4,0.3-0.6,0.5-1.1,0.9c-2.2-2.6-4.3-5.1-6.4-7.7
		c0.1-0.1,0.1-0.2,0.2-0.3c2.9,0.7,5.8,1.3,8.7,1.9c0.9,0.2,1.2,0.6,0.7,1.5c0,0.1,0.1,0.2,0.1,0.3c0.2,0.1,0.5,0.3,0.9,0.5
		c1.1-1.7,2.1-3.3,3.1-5c-0.3-0.2-0.6-0.4-0.9-0.6c0,0.1,0,0.2,0,0.3c-0.7,0-1.4,0.3-2.1,0.2c-3.7-0.5-7.5-1.1-11.2-1.8
		c-0.4-0.1-0.9-0.5-1.2-0.9c-1.5-1.9-2.9-3.8-4.4-5.7c-0.4-0.6-1-1.2-1.3-1.9c-0.3-0.6-0.3-1.3-0.5-2.1c-0.1,0-0.3-0.2-0.7-0.4
		c-0.8,1.4-1.6,2.7-2.4,4c0.4,0.2,0.7,0.4,1.1,0.6c0.2-0.4,0.4-0.7,0.8-1.3c2.2,2.5,4.1,4.7,6.1,7c0,0.1-0.1,0.2-0.3,0.2
		c-3-0.7-6-0.9-8.9-2.2c0.2-0.5,0.3-0.8,0.5-1.2c-0.4-0.2-0.7-0.4-1.1-0.6c-1,1.7-2,3.3-3,5c0.4,0.2,0.6,0.4,0.9,0.6
		C34.3,76.6,35,76.3,35.6,76.4z"/>
	<path class="st1" d="M26.1,115.3c3.2-1.1,6.5-2.1,9.8-3.1c0.3-0.1,0.7,0,1,0.1c3.4,1.6,6.7,3.3,10,5c0.3,0.2,0.5,0.5,0.8,0.7
		c0.3,0.3,0.7,0.6,1,0.9c0.1-0.1,0.2-0.2,0.3-0.3c0.1-1.3,0.2-2.6,0.3-4c-0.7,0-1.3-0.4-1.4,0.6c0,0.1-0.5,0.4-0.7,0.3
		c-2.9-1.2-5.8-2.5-8.7-3.7c0.1-0.1,0.1-0.3,0.1-0.4c2.9-0.7,5.8-1.5,8.7-2.2c1-0.3,1.3,0.2,1.2,1.2c0.5,0.1,0.8,0.1,1.3,0.1
		c0.1-2,0.3-3.9,0.4-5.8c-0.9-0.1-0.9,0-1.4,0.6c-0.2,0.3-0.6,0.5-1,0.6c-3.7,1.1-7.3,2.3-10.9,3.4c-0.5,0.1-1.3,0-1.8-0.2
		c-2.7-1.3-5.4-2.6-8.1-4c-0.6-0.3-1.1-1-1.6-1.5c0.1-0.1,0.1-0.2,0.2-0.3c-0.3,0-0.7,0-1.1,0c-0.1,1.5-0.2,3-0.3,4.5
		c0.4,0,0.8,0.1,1.1,0.1c0-0.2-0.1-0.3-0.1-0.4c0.5-0.3,1-0.8,1.3-0.7c2.6,0.9,5.2,2,7.8,3c-0.1,0.1-0.1,0.3-0.1,0.4
		c-2.6,0.6-5.1,1.2-7.7,1.9c-1,0.3-1.4,0-1.4-1c0,0-0.1-0.1-0.2-0.2c-0.3,0-0.6,0-1,0c-0.2,1.9-0.3,3.8-0.5,6c0.6-0.2,1-0.2,1.2-0.5
		C25.1,116.1,25.5,115.5,26.1,115.3z"/>
	<path class="st1" d="M161.3,189.6c-3.7-4.3-7.3-8.5-10.9-12.8c-1.4-1.7-2.7-3.5-4.1-5.3c-0.8,0.4-1.6,0.9-2.3,1.3
		c2,5.3,3.8,10.5,5.7,15.6c0.5,1.5,1.2,2.9,1.5,4.4c0.3,1.4,1.8,2.8,0.3,4.3c0.2,0.3,0.4,0.6,0.6,0.9c1.2-0.6,2.3-1.2,3.4-1.9
		c-0.2-0.4-0.4-0.7-0.6-1c-0.4,0.1-0.7,0.3-1.4,0.5c-2.2-6.2-4.4-12.3-6.5-18.4c0.3,0.1,0.4,0.1,0.4,0.1c3.7,4.8,7.5,9.6,11.2,14.3
		c0.5,0.6,0.4,1.1-0.3,1.5c-0.1,0-0.1,0.2-0.2,0.3c0.2,0.3,0.4,0.6,0.6,0.9c1.7-1,3.4-1.9,5.2-3c-0.4-0.4-0.7-0.7-1-0.9
		C162.4,190.1,161.7,190,161.3,189.6z"/>
	<path class="st1" d="M188.8,160.6c-4.7-1.9-9.4-3.9-14-5.9c-2.5-1.1-5-2.4-7.5-3.6c-0.5,0.8-1,1.5-1.5,2.3c2.1,2,4.2,3.9,6.3,5.7
		c3.5,3.3,7,6.7,10.5,10.1c0.4,0.5,1,1.1,0.9,1.5c-0.3,1,0.2,1.1,0.8,1.4c0.7-1.1,1.4-2.1,2.1-3.2c-0.4-0.3-0.6-0.5-1-0.7
		c-0.6,1.3-1.3,0.7-2,0.1c-3-2.8-6-5.7-9-8.6c-1.3-1.3-2.6-2.7-3.8-4c2,0.9,4.2,1.9,6.3,2.9c3.4,1.7,6.8,3.3,10.2,5
		c0.4,0.1,0.8,0.8,0.7,1c-0.4,0.9,0.1,1.1,0.8,1.3c1.1-1.6,2.1-3.2,3.3-4.9c-0.5-0.2-0.9-0.4-1.3-0.4
		C190,160.5,189.3,160.8,188.8,160.6z"/>
	<path class="st1" d="M62.6,155.4c-3,1.6-5.9,3.3-8.6,4.9c-4,2.1-7.9,4.2-11.8,6.3c-0.5,0.2-1.3,0.5-1.6,0.3c-0.7-0.5-1-0.2-1.5,0.4
		c0.8,1,1.7,2,2.5,3c0.3-0.4,0.6-0.6,0.9-0.9c-1-0.9-0.4-1.4,0.4-1.8c4.4-2.4,8.9-4.8,13.3-7.2c0.8-0.5,1.7-0.9,2.5-1.3
		c0.1,0.1,0.1,0.2,0.2,0.3c-4.3,4.6-8.7,9.3-13,13.9c-0.6-0.4-0.9-0.6-1.3-0.9c-0.3,0.2-0.6,0.4-0.9,0.7c1.2,1.6,2.4,3.1,3.6,4.6
		c0.3-0.3,0.6-0.5,0.9-0.7c-0.1-0.1-0.2-0.1-0.3-0.2c0.3-0.6,0.5-1.4,0.9-1.9c3.4-4,6.8-8,10.3-11.9c1.7-1.9,3.5-3.6,5.2-5.5
		C63.7,156.8,63.2,156.1,62.6,155.4z"/>
	<path class="st1" d="M126.2,203.3c-1.4-4.9-2.8-9.8-4.2-14.8c-0.7-2.7-1.3-5.4-1.9-8.1c-0.9,0.1-1.8,0.2-2.6,0.3
		c0,0.2-0.1,0.3-0.1,0.4c-0.7,7.6-1.3,15.3-2,22.9c-0.1,0.4-0.3,1.2-0.6,1.3c-0.9,0.4-0.6,0.9-0.4,1.5c1.3-0.2,2.5-0.3,4-0.4
		c-0.3-0.5-0.5-1.1-0.9-1.1c-1.2-0.1-1.1-0.9-1-1.6c0.2-2.8,0.4-5.7,0.7-8.5c0.3-3.2,0.7-6.3,1-9.7c0.2,0.3,0.3,0.4,0.3,0.5
		c1.4,5.8,2.7,11.6,4.1,17.4c0.2,1,0.1,1.5-0.9,1.6c0,0-0.1,0.1-0.2,0.2c0.1,0.3,0.1,0.6,0.2,1c2-0.2,3.8-0.4,6-0.6
		c-0.2-0.5-0.4-0.9-0.6-1.2C126.9,204,126.3,203.7,126.2,203.3z"/>
	<path class="st1" d="M88,180.6c-3.1,5.4-6.2,10.7-9.3,16.1c-0.3,0.4-0.9,0.7-1.3,1.1c-0.3,0.2-0.6,0.5-1.2,0.9c1.6,0.5,2.8,1,4,1.4
		c0.1-0.5,0.2-0.8,0.4-1.2c-1.3-0.3-1-1.1-0.5-1.9c2.1-3.6,4.2-7.3,6.3-11c0.9-1.5,1.9-3.1,2.8-4.6c0,1.3-0.2,2.6-0.5,3.8
		c-1,4.6-1.9,9.3-2.9,13.9c-0.2,1-0.5,1.9-1.7,1.2c-0.4,0.6-0.5,1.1,0.3,1.4c1.6,0.5,3.2,1.1,4.8,1.7c0.1-0.4,0.3-0.7,0.4-1.1
		c-1.2-0.5-0.8-1.5-0.7-2.3c0.6-4.3,1.3-8.5,2-12.8c0.5-3.2,1.2-6.5,1.9-9.8c-0.8-0.3-1.6-0.6-2.5-0.9
		C89.5,177.9,88.8,179.3,88,180.6z"/>
	<path class="st1" d="M73.4,194c3.3-6.1,6.5-12.1,9.8-18.2c0.4-0.7,0.9-1.1,1.7-0.4c0.2-0.4,0.4-0.8,0.6-1.2
		c-1.6-0.8-3.1-1.6-4.7-2.5c-0.2,0.4-0.3,0.8-0.5,1.1c0.9,0.8,1,0.9,0.4,1.9c-3.2,6-6.5,12-9.7,18c-0.4,0.8-0.8,1.5-1.8,0.7
		c-0.2,0.4-0.4,0.7-0.6,1.1c1.6,0.9,3.2,1.7,4.8,2.6c0.2-0.3,0.4-0.6,0.7-1.1C72.9,195.5,73.2,194.8,73.4,194z"/>
	<path class="st1" d="M48.5,123.7c0.2,1,0.7,0.7,1.4,0.6c-0.1-1.8-0.2-3.5-0.4-5.6c-0.6,0.4-1.1,0.5-1.4,0.9c-0.1,0.9-0.8,0.9-1.4,1
		c-2.4,0.2-4.7,0.4-7.1,0.6c-4.4,0.3-8.8,0.6-13.2,0.9c-0.5,0-1.3-0.2-1.4-0.5c-0.3-1.1-0.8-0.6-1.4-0.5c0.2,1.7,0.3,3.4,0.5,5.4
		c0.6-0.3,1.2-0.5,1.2-0.7c0.1-0.9,0.7-0.9,1.3-1c7-0.5,13.9-1.1,20.9-1.6C47.8,123.2,48.5,123.5,48.5,123.7z"/>
	<path class="st1" d="M200.5,114.9c-2.9,0.1-5.9,0.2-8.9,0.2c-3.8,0-7.7,0-11.5-0.1c-0.5,0-1.4-0.3-1.5-0.6c-0.3-1-0.8-0.6-1.3-0.5
		c0,1.8,0,3.5,0,5.4c0.6-0.2,1.2-0.2,1.2-0.4c0.1-1,0.8-1,1.5-1c6.8,0,13.5-0.1,20.3-0.1c0.9,0,1.6,0.2,1.6,1.3
		c0.5-0.1,0.8-0.1,1.2-0.1c0-1.8,0-3.5,0-5.6c-0.5,0.3-1.1,0.4-1.3,0.7C201.6,114.8,201.1,114.9,200.5,114.9z"/>
	<path class="st1" d="M189.7,74.7c-6.1,3.2-12.1,6.4-18.1,9.6c-0.8,0.4-1.4,0.5-1.8-0.5c-0.4,0.3-0.8,0.5-1.1,0.7
		c0.9,1.6,1.7,3.1,2.5,4.7c0.4-0.2,0.7-0.3,1-0.5c-0.3-1.2-0.3-1.3,0.9-1.9c5.4-2.9,10.8-5.8,16.3-8.6c1-0.5,2.1-2.2,3.5-0.5
		c0,0,0.1,0,0.2,0c0.3-0.2,0.6-0.4,0.9-0.6c-0.8-1.6-1.7-3.1-2.6-4.8c-0.4,0.4-0.9,0.8-0.8,0.8C191.1,74.1,190.3,74.4,189.7,74.7z"
		/>
	<path class="st1" d="M34.9,154.2c1.8-0.9,3.6-1.8,5.4-2.6c4.4-2,8.9-3.9,13.3-5.9c0.4-0.1,1.1-0.2,1.3,0c0.6,0.8,1,0.4,1.6,0
		c-0.7-1.6-1.4-3.1-2.2-4.7c-0.4,0.2-0.8,0.3-1.2,0.5c0.7,1.1,0,1.4-0.8,1.5c-6.2,2.9-12.5,5.7-18.7,8.6c-0.9,0.4-1.4,0.1-1.8-0.7
		c-0.4,0.2-0.7,0.4-1.1,0.6c0.7,1.7,1.5,3.3,2.3,5.1c0.4-0.4,1-0.8,0.9-1C33.7,154.7,34.3,154.5,34.9,154.2z"/>
	<path class="st1" d="M177.8,108.2c0-0.1,0.1-0.3,0.1-0.4c-0.3,0-0.7,0-1.1,0.1c0.2,1.8,0.3,3.5,0.5,5.3c0.5-0.1,0.8-0.1,1.3-0.1
		c-0.3-1.2,0.4-1.4,1.3-1.4c3.4-0.3,6.8-0.8,10.3-1.1c3.3-0.4,6.7-0.7,10.1-0.9c0.4,0,1.2,0.2,1.3,0.5c0.4,0.8,0.8,0.6,1.4,0.4
		c-0.2-1.7-0.4-3.4-0.6-5.4c-0.5,0.2-1.1,0.4-1.1,0.6c0,1-0.6,1-1.3,1.1c-6.9,0.7-13.7,1.4-20.6,2
		C178.9,108.9,178.3,108.4,177.8,108.2z"/>
	<path class="st1" d="M66.2,190.2c3.7-5.7,7.6-11.5,11.4-17.2c0.4-0.7,0.9-1.4,1.8-0.5c0.2-0.4,0.4-0.7,0.7-1.1
		c-1.5-1-2.9-1.9-4.4-2.9c-0.2,0.4-0.4,0.7-0.7,1.1c1,0.5,0.8,1.2,0.3,1.9c-2.4,3.7-4.8,7.4-7.2,11.1c-1.4,2-2.8,4-4.2,6
		c-0.2,0.3-0.9,0.7-1.1,0.6c-0.8-0.4-0.9,0.2-1.3,0.8c1.6,1,3,2,4.5,2.8c0.2-0.4,0.4-0.7,0.6-1c-0.1,0-0.3,0-0.4,0
		C66.2,191.3,65.9,190.6,66.2,190.2z"/>
	<path class="st1" d="M199.5,123.1c-6.5-0.6-13.1-1.2-19.6-1.8c-0.8-0.1-1.5-0.2-1.3-1.4c-0.5,0-0.9,0-1.3,0
		c-0.2,1.7-0.3,3.4-0.5,5.2c0.5,0,0.8,0.1,1.3,0.1c0-1.2,0.7-1.3,1.6-1.2c2.6,0.2,5.1,0.4,7.7,0.6c4.3,0.4,8.5,0.8,12.8,1.3
		c0.4,0.1,1.1,0.4,1.1,0.7c0.1,0.9,0.6,0.7,1.3,0.7c0.2-1.8,0.3-3.5,0.5-5.4c-0.6,0.1-1.2,0.1-1.3,0.3
		C201.4,123.6,200.3,123.2,199.5,123.1z"/>
	<path class="st1" d="M169.4,83.3c-0.5-1.1-0.5-1.2,0.6-1.9c5.2-3.4,10.4-6.9,15.6-10.2c0.9-0.6,1.9-2.3,3.4-0.8c0,0,0.1,0,0.2,0
		c0.2-0.1,0.5-0.4,0.8-0.6c-1-1.5-1.9-2.9-2.9-4.4c-0.4,0.3-0.7,0.4-1.1,0.7c1,1.2-0.2,1.6-0.7,2c-5.2,3.4-10.3,6.8-15.5,10.1
		c-0.9,0.5-1.8,2.2-3.3,0.7c0,0-0.1,0-0.2,0c-0.2,0.2-0.5,0.4-0.8,0.7c1,1.5,1.9,2.9,2.9,4.4C168.8,83.7,169.1,83.5,169.4,83.3z"/>
	<path class="st1" d="M147.2,61c-0.7-0.4-1-0.9-0.6-1.9c3.3-6,6.6-12,9.9-18c0.4-0.7,0.9-1.4,1.9-0.7c0.2-0.4,0.4-0.7,0.6-1.1
		c-1.6-0.9-3.1-1.7-4.8-2.6c-0.1,0.5-0.3,1.1-0.2,1.2c1.1,0.7,0.4,1.4,0.1,2c-2.9,5.5-5.9,11-9,16.4c-0.5,0.9-0.5,2.8-2.5,2.1
		c-0.1,0-0.1,0.1-0.2,0.1c-0.2,0.3-0.3,0.6-0.5,1c1.6,0.9,3.1,1.7,4.7,2.6C146.8,61.7,147,61.4,147.2,61z"/>
	<path class="st1" d="M31.8,146.9c6.3-2.3,12.7-4.6,19-6.9c0.9-0.3,1.6-0.4,2,0.7c0.4-0.1,0.7-0.3,1.1-0.5c-0.6-1.6-1.2-3.2-1.9-5.1
		c-0.4,0.4-0.9,0.7-0.9,0.9c0.3,1-0.5,1.2-1.1,1.4c-6.3,2.3-12.6,4.7-18.9,7c-0.9,0.3-1.6,0.4-2-0.6c-0.9,0.2-1.1,0.5-0.8,1.3
		c0.5,1.3,0.9,2.5,1.4,3.8c0.1,0.1,0.1,0.2,0.2,0.3c0.3-0.2,0.6-0.3,1-0.4C30.8,147.6,30.8,147.5,31.8,146.9z"/>
	<path class="st1" d="M39.1,161.3c5.8-3.3,11.6-6.7,17.4-10c0.8-0.4,1.4-0.6,1.9,0.4c0.4-0.3,0.8-0.5,1.1-0.7
		c-1-1.6-1.8-3.1-2.7-4.6c-0.4,0.2-0.7,0.3-1,0.5c0.3,1.2,0.3,1.3-0.7,1.9c-5.9,3.4-11.8,6.8-17.7,10.2c-0.7,0.4-1.4,0.7-1.9-0.4
		c-0.4,0.3-0.7,0.5-1,0.7c0.9,1.6,1.7,3.1,2.8,4.9c0.4-0.5,0.9-0.9,0.8-1.1C37.5,162,38.4,161.7,39.1,161.3z"/>
	<path class="st1" d="M123.1,53.6c-0.2-0.5-0.2-1.2-0.3-1.4c-1-0.2-0.9-0.9-0.8-1.6c0.6-6.2,1.2-12.3,2-18.5
		c0.2-1.1-0.5-2.9,1.6-3.1c0,0,0,0,0.1-0.1c0.1-0.3,0.1-0.6,0.1-1c-1.6-0.2-3.2-0.4-4.7-0.5c-0.2,0-0.6,0.2-0.6,0.4
		c-0.1,0.3,0.1,0.8,0.2,0.8c0.9,0.3,0.8,1,0.7,1.6c-0.2,2-0.4,4.1-0.6,6.1c-0.5,4.7-1.1,9.5-1.7,14.3c-0.1,0.4-0.5,1.1-0.7,1.1
		c-1,0.1-0.7,0.7-0.7,1.3C119.4,53.2,121.1,53.4,123.1,53.6z"/>
	<path class="st1" d="M107.1,181.7c0.2,0.4,0.7,0.8,0.7,1.2c-0.1,2.2-0.2,4.3-0.3,6.5c-0.3,4.8-0.6,9.5-1,14.2
		c0,0.4-0.4,0.9-0.7,1.3c-0.2,0.3-0.5,0.6-0.8,0.9c0,0.1,0.1,0.2,0.2,0.3c1.7,0.2,3.4,0.3,5.5,0.4c-0.2-0.6-0.3-1.2-0.6-1.2
		c-1-0.3-0.8-1-0.8-1.7c0.4-6.2,0.7-12.4,1.2-18.6c0.1-1.1-0.6-2.8,1.4-3.1c0,0,0-0.1,0.1-0.2c0-0.2,0-0.6,0-1
		c-1.7-0.1-3.4-0.3-5.5-0.4C106.7,180.9,106.9,181.3,107.1,181.7z"/>
	<path class="st1" d="M192.7,152.6c-1.8-0.8-3.6-1.6-5.4-2.4c-4.4-2.1-8.7-4.3-13.1-6.4c-0.4-0.2-0.6-0.7-0.9-1.1
		c-0.2-0.4-0.4-0.8-0.6-1.2c-0.2,0-0.3,0.1-0.4,0.1c-0.7,1.6-1.4,3.2-2.2,4.8c0.4,0.2,0.7,0.4,1.1,0.6c0.5-1.2,1.2-0.9,2-0.5
		c2.3,1.1,4.7,2.1,7,3.2c3.8,1.8,7.6,3.6,11.4,5.5c0.4,0.2,1,0.8,0.9,1.1c-0.2,0.8,0.3,0.9,1,1.1c0.7-1.7,1.5-3.2,2.2-4.7
		c-0.4-0.2-0.7-0.4-1.1-0.6C194.2,153.2,193.5,152.9,192.7,152.6z"/>
	<path class="st1" d="M175.5,116.9c0-34.3-27.9-62.2-62.2-62.2s-62.2,27.9-62.2,62.2c0,34.3,27.9,62.2,62.2,62.2
		S175.5,151.2,175.5,116.9z M113.3,177.1c-33.2,0-60.2-27-60.2-60.2c0-33.2,27-60.2,60.2-60.2s60.2,27,60.2,60.2
		C173.5,150.1,146.5,177.1,113.3,177.1z"/>
</g>
</svg>
